%TF.GenerationSoftware,KiCad,Pcbnew,8.0.4*%
%TF.CreationDate,2024-11-25T15:57:07-04:00*%
%TF.ProjectId,Beacon-WirelessCharge,42656163-6f6e-42d5-9769-72656c657373,rev?*%
%TF.SameCoordinates,Original*%
%TF.FileFunction,Component,L1,Top*%
%TF.FilePolarity,Positive*%
%FSLAX46Y46*%
G04 Gerber Fmt 4.6, Leading zero omitted, Abs format (unit mm)*
G04 Created by KiCad (PCBNEW 8.0.4) date 2024-11-25 15:57:07*
%MOMM*%
%LPD*%
G01*
G04 APERTURE LIST*
%TA.AperFunction,ComponentMain*%
%ADD10C,0.300000*%
%TD*%
%TA.AperFunction,ComponentOutline,Courtyard*%
%ADD11C,0.100000*%
%TD*%
%TA.AperFunction,ComponentPin*%
%ADD12P,0.360000X4X0.000000*%
%TD*%
%TA.AperFunction,ComponentPin*%
%ADD13C,0.100000*%
%TD*%
%TA.AperFunction,ComponentOutline,Footprint*%
%ADD14C,0.100000*%
%TD*%
%TA.AperFunction,Profile*%
%ADD15C,0.075000*%
%TD*%
%TA.AperFunction,Profile*%
%ADD16C,0.100000*%
%TD*%
G04 APERTURE END LIST*
D10*
%TO.C,L7*%
%TO.CFtp,L_0402_1005Metric*%
%TO.CVal,7.3nH*%
%TO.CLbN,Inductor_SMD*%
%TO.CMnt,SMD*%
%TO.CRot,-90*%
X60025000Y-61540000D03*
D11*
X60494999Y-60610001D02*
X60494999Y-62469999D01*
X59555001Y-62469999D01*
X59555001Y-60610001D01*
X60494999Y-60610001D01*
D12*
%TO.P,L7,1,1*%
X60025000Y-61055000D03*
D13*
%TO.P,L7,2,2*%
X60025000Y-62025000D03*
%TD*%
D10*
%TO.C,C29*%
%TO.CFtp,C_0402_1005Metric*%
%TO.CVal,0.8pF*%
%TO.CLbN,Capacitor_SMD*%
%TO.CMnt,SMD*%
%TO.CRot,0*%
X59470000Y-60080000D03*
D11*
X60379999Y-59620001D02*
X60379999Y-60539999D01*
X58560001Y-60539999D01*
X58560001Y-59620001D01*
X60379999Y-59620001D01*
D12*
%TO.P,C29,1*%
X58990000Y-60080000D03*
D13*
%TO.P,C29,2*%
X59950000Y-60080000D03*
%TD*%
D10*
%TO.C,C11*%
%TO.CFtp,C_0603_1608Metric*%
%TO.CVal,4.7uF (X7R)*%
%TO.CLbN,Capacitor_SMD*%
%TO.CMnt,SMD*%
%TO.CRot,-90*%
X57353200Y-72288400D03*
D11*
X58083199Y-70808401D02*
X58083199Y-73768399D01*
X56623201Y-73768399D01*
X56623201Y-70808401D01*
X58083199Y-70808401D01*
D12*
%TO.P,C11,1*%
X57353200Y-71513400D03*
D13*
%TO.P,C11,2*%
X57353200Y-73063400D03*
%TD*%
D10*
%TO.C,R5*%
%TO.CFtp,R_0402_1005Metric*%
%TO.CVal,196*%
%TO.CLbN,Resistor_SMD*%
%TO.CMnt,SMD*%
%TO.CRot,180*%
X44704000Y-65532000D03*
D11*
X45633999Y-65062001D02*
X45633999Y-66001999D01*
X43774001Y-66001999D01*
X43774001Y-65062001D01*
X45633999Y-65062001D01*
D12*
%TO.P,R5,1*%
X45214000Y-65532000D03*
D13*
%TO.P,R5,2*%
X44194000Y-65532000D03*
%TD*%
D10*
%TO.C,C12*%
%TO.CFtp,C_0603_1608Metric*%
%TO.CVal,10uF 16V*%
%TO.CLbN,Capacitor_SMD*%
%TO.CMnt,SMD*%
%TO.CRot,-90*%
X49500000Y-69650000D03*
D11*
X50229999Y-68170001D02*
X50229999Y-71129999D01*
X48770001Y-71129999D01*
X48770001Y-68170001D01*
X50229999Y-68170001D01*
D12*
%TO.P,C12,1*%
X49500000Y-68875000D03*
D13*
%TO.P,C12,2*%
X49500000Y-70425000D03*
%TD*%
D10*
%TO.C,C23*%
%TO.CFtp,C_0603_1608Metric*%
%TO.CVal,10uF 16V*%
%TO.CLbN,Capacitor_SMD*%
%TO.CMnt,SMD*%
%TO.CRot,180*%
X51175000Y-59750000D03*
D11*
X52654999Y-59020001D02*
X52654999Y-60479999D01*
X49695001Y-60479999D01*
X49695001Y-59020001D01*
X52654999Y-59020001D01*
D12*
%TO.P,C23,1*%
X51950000Y-59750000D03*
D13*
%TO.P,C23,2*%
X50400000Y-59750000D03*
%TD*%
D10*
%TO.C,C24*%
%TO.CFtp,C_0402_1005Metric*%
%TO.CVal,1.2pF*%
%TO.CLbN,Capacitor_SMD*%
%TO.CMnt,SMD*%
%TO.CRot,-90*%
X57050000Y-61555000D03*
D11*
X57509999Y-60645001D02*
X57509999Y-62464999D01*
X56590001Y-62464999D01*
X56590001Y-60645001D01*
X57509999Y-60645001D01*
D12*
%TO.P,C24,1*%
X57050000Y-61075000D03*
D13*
%TO.P,C24,2*%
X57050000Y-62035000D03*
%TD*%
D10*
%TO.C,C2*%
%TO.CFtp,C_0402_1005Metric*%
%TO.CVal,680pF 25V*%
%TO.CLbN,Capacitor_SMD*%
%TO.CMnt,SMD*%
%TO.CRot,0*%
X46786800Y-59120000D03*
D11*
X47696799Y-58660001D02*
X47696799Y-59579999D01*
X45876801Y-59579999D01*
X45876801Y-58660001D01*
X47696799Y-58660001D01*
D12*
%TO.P,C2,1*%
X46306800Y-59120000D03*
D13*
%TO.P,C2,2*%
X47266800Y-59120000D03*
%TD*%
D10*
%TO.C,C8*%
%TO.CFtp,C_0402_1005Metric*%
%TO.CVal,10nF 25V*%
%TO.CLbN,Capacitor_SMD*%
%TO.CMnt,SMD*%
%TO.CRot,180*%
X51700000Y-62470000D03*
D11*
X52609999Y-62010001D02*
X52609999Y-62929999D01*
X50790001Y-62929999D01*
X50790001Y-62010001D01*
X52609999Y-62010001D01*
D12*
%TO.P,C8,1*%
X52180000Y-62470000D03*
D13*
%TO.P,C8,2*%
X51220000Y-62470000D03*
%TD*%
D10*
%TO.C,C3*%
%TO.CFtp,C_0402_1005Metric*%
%TO.CVal,470pF 25V*%
%TO.CLbN,Capacitor_SMD*%
%TO.CMnt,SMD*%
%TO.CRot,0*%
X46786800Y-60045600D03*
D11*
X47696799Y-59585601D02*
X47696799Y-60505599D01*
X45876801Y-60505599D01*
X45876801Y-59585601D01*
X47696799Y-59585601D01*
D12*
%TO.P,C3,1*%
X46306800Y-60045600D03*
D13*
%TO.P,C3,2*%
X47266800Y-60045600D03*
%TD*%
D10*
%TO.C,C21*%
%TO.CFtp,C_0402_1005Metric*%
%TO.CVal,1pF*%
%TO.CLbN,Capacitor_SMD*%
%TO.CMnt,SMD*%
%TO.CRot,180*%
X57570000Y-62960000D03*
D11*
X58479999Y-62500001D02*
X58479999Y-63419999D01*
X56660001Y-63419999D01*
X56660001Y-62500001D01*
X58479999Y-62500001D01*
D12*
%TO.P,C21,1*%
X58050000Y-62960000D03*
D13*
%TO.P,C21,2*%
X57090000Y-62960000D03*
%TD*%
D10*
%TO.C,C18*%
%TO.CFtp,C_0402_1005Metric*%
%TO.CVal,820pF*%
%TO.CLbN,Capacitor_SMD*%
%TO.CMnt,SMD*%
%TO.CRot,0*%
X58450000Y-64100000D03*
D11*
X59359999Y-63640001D02*
X59359999Y-64559999D01*
X57540001Y-64559999D01*
X57540001Y-63640001D01*
X59359999Y-63640001D01*
D12*
%TO.P,C18,1*%
X57970000Y-64100000D03*
D13*
%TO.P,C18,2*%
X58930000Y-64100000D03*
%TD*%
D10*
%TO.C,C1*%
%TO.CFtp,C_0402_1005Metric*%
%TO.CVal,33nF 25V*%
%TO.CLbN,Capacitor_SMD*%
%TO.CMnt,SMD*%
%TO.CRot,0*%
X44881800Y-61391800D03*
D11*
X45791799Y-60931801D02*
X45791799Y-61851799D01*
X43971801Y-61851799D01*
X43971801Y-60931801D01*
X45791799Y-60931801D01*
D12*
%TO.P,C1,1*%
X44401800Y-61391800D03*
D13*
%TO.P,C1,2*%
X45361800Y-61391800D03*
%TD*%
D10*
%TO.C,C22*%
%TO.CFtp,C_0402_1005Metric*%
%TO.CVal,0.1uF 25V*%
%TO.CLbN,Capacitor_SMD*%
%TO.CMnt,SMD*%
%TO.CRot,0*%
X51700000Y-61550000D03*
D11*
X52609999Y-61090001D02*
X52609999Y-62009999D01*
X50790001Y-62009999D01*
X50790001Y-61090001D01*
X52609999Y-61090001D01*
D12*
%TO.P,C22,1*%
X51220000Y-61550000D03*
D13*
%TO.P,C22,2*%
X52180000Y-61550000D03*
%TD*%
D10*
%TO.C,L4*%
%TO.CFtp,L_0402_1005Metric*%
%TO.CVal,2.2nH*%
%TO.CLbN,Inductor_SMD*%
%TO.CMnt,SMD*%
%TO.CRot,0*%
X57550000Y-60050000D03*
D11*
X58479999Y-59580001D02*
X58479999Y-60519999D01*
X56620001Y-60519999D01*
X56620001Y-59580001D01*
X58479999Y-59580001D01*
D12*
%TO.P,L4,1,1*%
X57065000Y-60050000D03*
D13*
%TO.P,L4,2,2*%
X58035000Y-60050000D03*
%TD*%
D10*
%TO.C,C5*%
%TO.CFtp,C_0402_1005Metric*%
%TO.CVal,0.47uF 25V*%
%TO.CLbN,Capacitor_SMD*%
%TO.CMnt,SMD*%
%TO.CRot,0*%
X44884400Y-63271400D03*
D11*
X45794399Y-62811401D02*
X45794399Y-63731399D01*
X43974401Y-63731399D01*
X43974401Y-62811401D01*
X45794399Y-62811401D01*
D12*
%TO.P,C5,1*%
X44404400Y-63271400D03*
D13*
%TO.P,C5,2*%
X45364400Y-63271400D03*
%TD*%
D10*
%TO.C,U2*%
%TO.CFtp,_Applications_test_rsk_lib_RSK-ONLY_Nordic Active DB.DbLib_nRF Devices_QFN40P500X500X50_HS-41N*%
%TO.CVal,0_nRF52833_QDAA*%
%TO.CLbN,footprints*%
%TO.CMnt,Other*%
%TO.CRot,90*%
X56500000Y-67725000D03*
D14*
X53675000Y-70550000D02*
X59325000Y-70550000D01*
X59325000Y-64899999D01*
X53675000Y-64899999D01*
X53675000Y-70550000D01*
D12*
%TO.P,U2,1,DEC1*%
X54699998Y-70125000D03*
D13*
%TO.P,U2,2,P0.00/XL1*%
X55100000Y-70125000D03*
%TO.P,U2,3,P0.01/XL2*%
X55499999Y-70125000D03*
%TO.P,U2,4,P0.04/AIN2*%
X55899998Y-70125000D03*
%TO.P,U2,5,P0.05/AIN3*%
X56300000Y-70125000D03*
%TO.P,U2,6,P1.09*%
X56699999Y-70125000D03*
%TO.P,U2,7,P0.11*%
X57099999Y-70125000D03*
%TO.P,U2,8,VDD*%
X57500000Y-70125000D03*
%TO.P,U2,9,VDDH*%
X57900000Y-70125000D03*
%TO.P,U2,10,VBUS*%
X58299999Y-70125000D03*
%TO.P,U2,11,DECUSB*%
X58900000Y-69525001D03*
%TO.P,U2,12,D-*%
X58900000Y-69124999D03*
%TO.P,U2,13,D+*%
X58900000Y-68725000D03*
%TO.P,U2,14,P0.15*%
X58900000Y-68325001D03*
%TO.P,U2,15,P0.17*%
X58900000Y-67924999D03*
%TO.P,U2,16,P0.18/RESET*%
X58900000Y-67525000D03*
%TO.P,U2,17,P0.20*%
X58900000Y-67125001D03*
%TO.P,U2,18,VDD*%
X58900000Y-66724999D03*
%TO.P,U2,19,SWDIO*%
X58900000Y-66325000D03*
%TO.P,U2,20,SWDCLK*%
X58900000Y-65925001D03*
%TO.P,U2,21,DEC5*%
X58299999Y-65324999D03*
%TO.P,U2,22,P0.09/NFC1*%
X57900000Y-65324999D03*
%TO.P,U2,23,P0.10/NFC2*%
X57500000Y-65324999D03*
%TO.P,U2,24,ANT*%
X57099999Y-65324999D03*
%TO.P,U2,25,VSS*%
X56699999Y-65324999D03*
%TO.P,U2,26,DEC6*%
X56300000Y-65324999D03*
%TO.P,U2,27,DEC3*%
X55899998Y-65324999D03*
%TO.P,U2,28,XC1*%
X55499999Y-65324999D03*
%TO.P,U2,29,XC2*%
X55100000Y-65324999D03*
%TO.P,U2,30,VDD*%
X54699998Y-65324999D03*
%TO.P,U2,31,P0.03/AIN1*%
X54100000Y-65925001D03*
%TO.P,U2,32,P0.02/AIN0*%
X54100000Y-66325000D03*
%TO.P,U2,33,P0.28/AIN4*%
X54100000Y-66724999D03*
%TO.P,U2,34,P0.29/AIN5*%
X54100000Y-67125001D03*
%TO.P,U2,35,P0.30/AIN6*%
X54100000Y-67525000D03*
%TO.P,U2,36,P0.31/AIN7*%
X54100000Y-67924999D03*
%TO.P,U2,37,VSS*%
X54100000Y-68325001D03*
%TO.P,U2,38,DEC4*%
X54100000Y-68725000D03*
%TO.P,U2,39,DCC*%
X54100000Y-69124999D03*
%TO.P,U2,40,VDD*%
X54100000Y-69525001D03*
%TO.P,U2,41,VSS*%
X56500000Y-67725000D03*
%TD*%
D10*
%TO.C,U1*%
%TO.CFtp,RHL20_2P05X3P05*%
%TO.CVal,BQ51013BRHLR*%
%TO.CLbN,footprints*%
%TO.CMnt,Other*%
%TO.CRot,0*%
X48260000Y-63500000D03*
D11*
X50664000Y-60596000D02*
X50664000Y-66404000D01*
X45856000Y-66404000D01*
X45856000Y-60596000D01*
X50664000Y-60596000D01*
D12*
%TO.P,U1,1,PGND*%
X47509999Y-61275001D03*
D13*
%TO.P,U1,2,AC1*%
X46535000Y-61750001D03*
%TO.P,U1,3,BOOT1*%
X46535000Y-62250000D03*
%TO.P,U1,4,OUT*%
X46535000Y-62749999D03*
%TO.P,U1,5,CLMP1*%
X46535000Y-63250000D03*
%TO.P,U1,6,COM1*%
X46535000Y-63750000D03*
%TO.P,U1,7,~{CHG}*%
X46535000Y-64250001D03*
%TO.P,U1,8,~{AD-EN}*%
X46535000Y-64750000D03*
%TO.P,U1,9,AD*%
X46535000Y-65249999D03*
%TO.P,U1,10,EN1*%
X47509999Y-65724999D03*
%TO.P,U1,11,EN2*%
X49010001Y-65724999D03*
%TO.P,U1,12,ILIM*%
X49985000Y-65249999D03*
%TO.P,U1,13,TS-CTRL*%
X49985000Y-64750000D03*
%TO.P,U1,14,FOD*%
X49985000Y-64250001D03*
%TO.P,U1,15,COM2*%
X49985000Y-63750000D03*
%TO.P,U1,16,CLMP2*%
X49985000Y-63250000D03*
%TO.P,U1,17,BOOT2*%
X49985000Y-62749999D03*
%TO.P,U1,18,RECT*%
X49985000Y-62250000D03*
%TO.P,U1,19,AC2*%
X49985000Y-61750001D03*
%TO.P,U1,20,PGND*%
X49010001Y-61275001D03*
%TO.P,U1,21,EPAD*%
X47866300Y-62712600D03*
X47866300Y-63500000D03*
X47866300Y-64287400D03*
X48260000Y-63500000D03*
X48653700Y-62712600D03*
X48653700Y-63500000D03*
X48653700Y-64287400D03*
%TD*%
D10*
%TO.C,C27*%
%TO.CFtp,C_0402_1005Metric*%
%TO.CVal,12pF*%
%TO.CLbN,Capacitor_SMD*%
%TO.CMnt,SMD*%
%TO.CRot,180*%
X53840000Y-58920000D03*
D11*
X54749999Y-58460001D02*
X54749999Y-59379999D01*
X52930001Y-59379999D01*
X52930001Y-58460001D01*
X54749999Y-58460001D01*
D12*
%TO.P,C27,1*%
X54320000Y-58920000D03*
D13*
%TO.P,C27,2*%
X53360000Y-58920000D03*
%TD*%
D10*
%TO.C,L2*%
%TO.CFtp,L_0603_1608Metric*%
%TO.CVal,10uH*%
%TO.CLbN,Inductor_SMD*%
%TO.CMnt,SMD*%
%TO.CRot,180*%
X51912500Y-70400000D03*
D11*
X53392499Y-69670001D02*
X53392499Y-71129999D01*
X50432501Y-71129999D01*
X50432501Y-69670001D01*
X53392499Y-69670001D01*
D12*
%TO.P,L2,1,1*%
X52700000Y-70400000D03*
D13*
%TO.P,L2,2,2*%
X51125000Y-70400000D03*
%TD*%
D10*
%TO.C,C30*%
%TO.CFtp,C_0402_1005Metric*%
%TO.CVal,4.7uF*%
%TO.CLbN,Capacitor_SMD*%
%TO.CMnt,SMD*%
%TO.CRot,180*%
X46120000Y-67650000D03*
D11*
X47029999Y-67190001D02*
X47029999Y-68109999D01*
X45210001Y-68109999D01*
X45210001Y-67190001D01*
X47029999Y-67190001D01*
D12*
%TO.P,C30,1*%
X46600000Y-67650000D03*
D13*
%TO.P,C30,2*%
X45640000Y-67650000D03*
%TD*%
D10*
%TO.C,C14*%
%TO.CFtp,C_0402_1005Metric*%
%TO.CVal,0.1uF*%
%TO.CLbN,Capacitor_SMD*%
%TO.CMnt,SMD*%
%TO.CRot,180*%
X51650000Y-73250000D03*
D11*
X52559999Y-72790001D02*
X52559999Y-73709999D01*
X50740001Y-73709999D01*
X50740001Y-72790001D01*
X52559999Y-72790001D01*
D12*
%TO.P,C14,1*%
X52130000Y-73250000D03*
D13*
%TO.P,C14,2*%
X51170000Y-73250000D03*
%TD*%
D10*
%TO.C,C32*%
%TO.CFtp,C_0402_1005Metric*%
%TO.CVal,N.C.*%
%TO.CLbN,Capacitor_SMD*%
%TO.CMnt,SMD*%
%TO.CRot,-90*%
X59050000Y-61525000D03*
D11*
X59509999Y-60615001D02*
X59509999Y-62434999D01*
X58590001Y-62434999D01*
X58590001Y-60615001D01*
X59509999Y-60615001D01*
D12*
%TO.P,C32,1*%
X59050000Y-61045000D03*
D13*
%TO.P,C32,2*%
X59050000Y-62005000D03*
%TD*%
D10*
%TO.C,C31*%
%TO.CFtp,C_0402_1005Metric*%
%TO.CVal,68nF 25V*%
%TO.CLbN,Capacitor_SMD*%
%TO.CMnt,SMD*%
%TO.CRot,0*%
X44880000Y-60460000D03*
D11*
X45789999Y-60000001D02*
X45789999Y-60919999D01*
X43970001Y-60919999D01*
X43970001Y-60000001D01*
X45789999Y-60000001D01*
D12*
%TO.P,C31,1*%
X44400000Y-60460000D03*
D13*
%TO.P,C31,2*%
X45360000Y-60460000D03*
%TD*%
D10*
%TO.C,R8*%
%TO.CFtp,R_0402_1005Metric*%
%TO.CVal,10K*%
%TO.CLbN,Resistor_SMD*%
%TO.CMnt,SMD*%
%TO.CRot,180*%
X51510000Y-71675000D03*
D11*
X52439999Y-71205001D02*
X52439999Y-72144999D01*
X50580001Y-72144999D01*
X50580001Y-71205001D01*
X52439999Y-71205001D01*
D12*
%TO.P,R8,1*%
X52020000Y-71675000D03*
D13*
%TO.P,R8,2*%
X51000000Y-71675000D03*
%TD*%
D10*
%TO.C,TH1*%
%TO.CFtp,R_0402_1005Metric*%
%TO.CVal,10K 3380 1\u0025*%
%TO.CLbN,Resistor_SMD*%
%TO.CMnt,SMD*%
%TO.CRot,-90*%
X48100000Y-72765000D03*
D11*
X48569999Y-71835001D02*
X48569999Y-73694999D01*
X47630001Y-73694999D01*
X47630001Y-71835001D01*
X48569999Y-71835001D01*
D12*
%TO.P,TH1,1*%
X48100000Y-72255000D03*
D13*
%TO.P,TH1,2*%
X48100000Y-73275000D03*
%TD*%
D10*
%TO.C,D1*%
%TO.CFtp,D_0402_1005Metric*%
%TO.CVal,LED*%
%TO.CLbN,Diode_SMD*%
%TO.CMnt,SMD*%
%TO.CRot,-90*%
X55100000Y-72815000D03*
D11*
X55569999Y-71885001D02*
X55569999Y-73744999D01*
X54630001Y-73744999D01*
X54630001Y-71885001D01*
X55569999Y-71885001D01*
D12*
%TO.P,D1,1,K*%
X55100000Y-72330000D03*
D13*
%TO.P,D1,2,A*%
X55100000Y-73300000D03*
%TD*%
D10*
%TO.C,R6*%
%TO.CFtp,R_0402_1005Metric*%
%TO.CVal,20K*%
%TO.CLbN,Resistor_SMD*%
%TO.CMnt,SMD*%
%TO.CRot,180*%
X52315000Y-65350000D03*
D11*
X53244999Y-64880001D02*
X53244999Y-65819999D01*
X51385001Y-65819999D01*
X51385001Y-64880001D01*
X53244999Y-64880001D01*
D12*
%TO.P,R6,1*%
X52825000Y-65350000D03*
D13*
%TO.P,R6,2*%
X51805000Y-65350000D03*
%TD*%
D10*
%TO.C,C10*%
%TO.CFtp,C_0402_1005Metric*%
%TO.CVal,0.47uF 25V*%
%TO.CLbN,Capacitor_SMD*%
%TO.CMnt,SMD*%
%TO.CRot,180*%
X51680000Y-63400000D03*
D11*
X52589999Y-62940001D02*
X52589999Y-63859999D01*
X50770001Y-63859999D01*
X50770001Y-62940001D01*
X52589999Y-62940001D01*
D12*
%TO.P,C10,1*%
X52160000Y-63400000D03*
D13*
%TO.P,C10,2*%
X51200000Y-63400000D03*
%TD*%
D10*
%TO.C,C19*%
%TO.CFtp,C_0402_1005Metric*%
%TO.CVal,100pF*%
%TO.CLbN,Capacitor_SMD*%
%TO.CMnt,SMD*%
%TO.CRot,90*%
X55530000Y-63260000D03*
D11*
X55989999Y-62350001D02*
X55989999Y-64169999D01*
X55070001Y-64169999D01*
X55070001Y-62350001D01*
X55989999Y-62350001D01*
D12*
%TO.P,C19,1*%
X55530000Y-63740000D03*
D13*
%TO.P,C19,2*%
X55530000Y-62780000D03*
%TD*%
D10*
%TO.C,AE1*%
%TO.CFtp,Antenna_2450AT43A100*%
%TO.CVal,AMCA72-2R470G-S1F-T4*%
%TO.CLbN,footprints*%
%TO.CMnt,SMD*%
%TO.CRot,-90*%
X63410000Y-58850000D03*
D11*
X63409999Y-58850001D02*
X63409999Y-66849999D01*
X60810001Y-66849999D01*
X60810001Y-58850001D01*
X63409999Y-58850001D01*
D12*
%TO.P,AE1,1,FEED*%
X62090000Y-59600000D03*
D13*
%TO.P,AE1,2,PCB_Trace*%
X62080000Y-66100000D03*
%TD*%
D10*
%TO.C,R3*%
%TO.CFtp,R_0402_1005Metric*%
%TO.CVal,200K*%
%TO.CLbN,Resistor_SMD*%
%TO.CMnt,SMD*%
%TO.CRot,-90*%
X60700000Y-70200000D03*
D11*
X61169999Y-69270001D02*
X61169999Y-71129999D01*
X60230001Y-71129999D01*
X60230001Y-69270001D01*
X61169999Y-69270001D01*
D12*
%TO.P,R3,1*%
X60700000Y-69690000D03*
D13*
%TO.P,R3,2*%
X60700000Y-70710000D03*
%TD*%
D10*
%TO.C,L6*%
%TO.CFtp,L_0603_1608Metric*%
%TO.CVal,2.2uH*%
%TO.CLbN,Inductor_SMD*%
%TO.CMnt,SMD*%
%TO.CRot,0*%
X48562500Y-67400000D03*
D11*
X50042499Y-66670001D02*
X50042499Y-68129999D01*
X47082501Y-68129999D01*
X47082501Y-66670001D01*
X50042499Y-66670001D01*
D12*
%TO.P,L6,1,1*%
X47775000Y-67400000D03*
D13*
%TO.P,L6,2,2*%
X49350000Y-67400000D03*
%TD*%
D10*
%TO.C,R1*%
%TO.CFtp,R_0402_1005Metric*%
%TO.CVal,5.1K*%
%TO.CLbN,Resistor_SMD*%
%TO.CMnt,SMD*%
%TO.CRot,90*%
X56100000Y-72790000D03*
D11*
X56569999Y-71860001D02*
X56569999Y-73719999D01*
X55630001Y-73719999D01*
X55630001Y-71860001D01*
X56569999Y-71860001D01*
D12*
%TO.P,R1,1*%
X56100000Y-73300000D03*
D13*
%TO.P,R1,2*%
X56100000Y-72280000D03*
%TD*%
D10*
%TO.C,C7*%
%TO.CFtp,C_0402_1005Metric*%
%TO.CVal,10nF 25V*%
%TO.CLbN,Capacitor_SMD*%
%TO.CMnt,SMD*%
%TO.CRot,0*%
X44881800Y-62331600D03*
D11*
X45791799Y-61871601D02*
X45791799Y-62791599D01*
X43971801Y-62791599D01*
X43971801Y-61871601D01*
X45791799Y-61871601D01*
D12*
%TO.P,C7,1*%
X44401800Y-62331600D03*
D13*
%TO.P,C7,2*%
X45361800Y-62331600D03*
%TD*%
D10*
%TO.C,C25*%
%TO.CFtp,C_0402_1005Metric*%
%TO.CVal,1uF*%
%TO.CLbN,Capacitor_SMD*%
%TO.CMnt,SMD*%
%TO.CRot,90*%
X44800000Y-71100000D03*
D11*
X45259999Y-70190001D02*
X45259999Y-72009999D01*
X44340001Y-72009999D01*
X44340001Y-70190001D01*
X45259999Y-70190001D01*
D12*
%TO.P,C25,1*%
X44800000Y-71580000D03*
D13*
%TO.P,C25,2*%
X44800000Y-70620000D03*
%TD*%
D10*
%TO.C,R7*%
%TO.CFtp,R_0402_1005Metric*%
%TO.CVal,71.5K 1\u0025*%
%TO.CLbN,Resistor_SMD*%
%TO.CMnt,SMD*%
%TO.CRot,0*%
X52451000Y-66319400D03*
D11*
X53380999Y-65849401D02*
X53380999Y-66789399D01*
X51521001Y-66789399D01*
X51521001Y-65849401D01*
X53380999Y-65849401D01*
D12*
%TO.P,R7,1*%
X51941000Y-66319400D03*
D13*
%TO.P,R7,2*%
X52961000Y-66319400D03*
%TD*%
D10*
%TO.C,C17*%
%TO.CFtp,C_0402_1005Metric*%
%TO.CVal,47nF*%
%TO.CLbN,Capacitor_SMD*%
%TO.CMnt,SMD*%
%TO.CRot,180*%
X52415000Y-68250000D03*
D11*
X53324999Y-67790001D02*
X53324999Y-68709999D01*
X51505001Y-68709999D01*
X51505001Y-67790001D01*
X53324999Y-67790001D01*
D12*
%TO.P,C17,1*%
X52895000Y-68250000D03*
D13*
%TO.P,C17,2*%
X51935000Y-68250000D03*
%TD*%
D10*
%TO.C,Y1*%
%TO.CFtp,Crystal_SMD_2016-4Pin_2.0x1.6mm*%
%TO.CVal,32MHz*%
%TO.CLbN,Crystal*%
%TO.CMnt,SMD*%
%TO.CRot,180*%
X54080000Y-60720000D03*
D11*
X55479999Y-59420001D02*
X55479999Y-62019999D01*
X52680001Y-62019999D01*
X52680001Y-59420001D01*
X55479999Y-59420001D01*
D12*
%TO.P,Y1,1,1*%
X54780000Y-60170000D03*
D13*
%TO.P,Y1,2,2*%
X53380000Y-60170000D03*
%TO.P,Y1,3,3*%
X53380000Y-61270000D03*
%TO.P,Y1,4,4*%
X54780000Y-61270000D03*
%TD*%
D10*
%TO.C,C13*%
%TO.CFtp,C_0402_1005Metric*%
%TO.CVal,1uF*%
%TO.CLbN,Capacitor_SMD*%
%TO.CMnt,SMD*%
%TO.CRot,180*%
X53490000Y-71628000D03*
D11*
X54399999Y-71168001D02*
X54399999Y-72087999D01*
X52580001Y-72087999D01*
X52580001Y-71168001D01*
X54399999Y-71168001D01*
D12*
%TO.P,C13,1*%
X53970000Y-71628000D03*
D13*
%TO.P,C13,2*%
X53010000Y-71628000D03*
%TD*%
D10*
%TO.C,C16*%
%TO.CFtp,C_0402_1005Metric*%
%TO.CVal,0.1uF*%
%TO.CLbN,Capacitor_SMD*%
%TO.CMnt,SMD*%
%TO.CRot,-90*%
X60700000Y-68298000D03*
D11*
X61159999Y-67388001D02*
X61159999Y-69207999D01*
X60240001Y-69207999D01*
X60240001Y-67388001D01*
X61159999Y-67388001D01*
D12*
%TO.P,C16,1*%
X60700000Y-67818000D03*
D13*
%TO.P,C16,2*%
X60700000Y-68778000D03*
%TD*%
D10*
%TO.C,L3*%
%TO.CFtp,L_0402_1005Metric*%
%TO.CVal,4.7nH*%
%TO.CLbN,Inductor_SMD*%
%TO.CMnt,SMD*%
%TO.CRot,90*%
X58050000Y-61530000D03*
D11*
X58519999Y-60600001D02*
X58519999Y-62459999D01*
X57580001Y-62459999D01*
X57580001Y-60600001D01*
X58519999Y-60600001D01*
D12*
%TO.P,L3,1,1*%
X58050000Y-62015000D03*
D13*
%TO.P,L3,2,2*%
X58050000Y-61045000D03*
%TD*%
D10*
%TO.C,R11*%
%TO.CFtp,R_0402_1005Metric*%
%TO.CVal,2M*%
%TO.CLbN,Resistor_SMD*%
%TO.CMnt,SMD*%
%TO.CRot,180*%
X53540000Y-72600000D03*
D11*
X54469999Y-72130001D02*
X54469999Y-73069999D01*
X52610001Y-73069999D01*
X52610001Y-72130001D01*
X54469999Y-72130001D01*
D12*
%TO.P,R11,1*%
X54050000Y-72600000D03*
D13*
%TO.P,R11,2*%
X53030000Y-72600000D03*
%TD*%
D10*
%TO.C,U3*%
%TO.CFtp,BGA25C40P5X5_247X253X50*%
%TO.CVal,BQ25121AYFPT*%
%TO.CLbN,footprints*%
%TO.CMnt,SMD*%
%TO.CRot,0*%
X47100000Y-70000000D03*
D11*
X48599999Y-68430001D02*
X48599999Y-71519999D01*
X45540001Y-71519999D01*
X45540001Y-68430001D01*
X48599999Y-68430001D01*
D12*
%TO.P,U3,A1,GND*%
X46300000Y-69200000D03*
D13*
%TO.P,U3,A2,IN*%
X46700000Y-69200000D03*
%TO.P,U3,A3,PMID*%
X47100000Y-69200000D03*
%TO.P,U3,A4,SW*%
X47500000Y-69200000D03*
%TO.P,U3,A5,PGND*%
X47900000Y-69200000D03*
%TO.P,U3,B1,BAT*%
X46300000Y-69600000D03*
%TO.P,U3,B2,BAT*%
X46700000Y-69600000D03*
%TO.P,U3,B3,PMID*%
X47100000Y-69600000D03*
%TO.P,U3,B4,VINLS*%
X47500000Y-69600000D03*
%TO.P,U3,B5,SYS*%
X47900000Y-69600000D03*
%TO.P,U3,C1,ISET*%
X46300000Y-70000000D03*
%TO.P,U3,C2,ILIM*%
X46700000Y-70000000D03*
%TO.P,U3,C3,TS*%
X47100000Y-70000000D03*
%TO.P,U3,C4,VINLS*%
X47500000Y-70000000D03*
%TO.P,U3,C5,LS_LDO*%
X47900000Y-70000000D03*
%TO.P,U3,D1,IPRETERM*%
X46300000Y-70400000D03*
%TO.P,U3,D2,INT*%
X46700000Y-70400000D03*
%TO.P,U3,D3,RESET_N*%
X47100000Y-70400000D03*
%TO.P,U3,D4,PG_N*%
X47500000Y-70400000D03*
%TO.P,U3,D5,GND*%
X47900000Y-70400000D03*
%TO.P,U3,E1,MR_N*%
X46300000Y-70800000D03*
%TO.P,U3,E2,CD_N*%
X46700000Y-70800000D03*
%TO.P,U3,E3,LSCTRL*%
X47100000Y-70800000D03*
%TO.P,U3,E4,SDA*%
X47500000Y-70800000D03*
%TO.P,U3,E5,SCL*%
X47900000Y-70800000D03*
%TD*%
D10*
%TO.C,C6*%
%TO.CFtp,C_0402_1005Metric*%
%TO.CVal,22nF 25V*%
%TO.CLbN,Capacitor_SMD*%
%TO.CMnt,SMD*%
%TO.CRot,0*%
X44881800Y-64211200D03*
D11*
X45791799Y-63751201D02*
X45791799Y-64671199D01*
X43971801Y-64671199D01*
X43971801Y-63751201D01*
X45791799Y-63751201D01*
D12*
%TO.P,C6,1*%
X44401800Y-64211200D03*
D13*
%TO.P,C6,2*%
X45361800Y-64211200D03*
%TD*%
D10*
%TO.C,C15*%
%TO.CFtp,C_0402_1005Metric*%
%TO.CVal,1uF*%
%TO.CLbN,Capacitor_SMD*%
%TO.CMnt,SMD*%
%TO.CRot,180*%
X52425000Y-67300000D03*
D11*
X53334999Y-66840001D02*
X53334999Y-67759999D01*
X51515001Y-67759999D01*
X51515001Y-66840001D01*
X53334999Y-66840001D01*
D12*
%TO.P,C15,1*%
X52905000Y-67300000D03*
D13*
%TO.P,C15,2*%
X51945000Y-67300000D03*
%TD*%
D10*
%TO.C,L1*%
%TO.CFtp,L_0402_1005Metric*%
%TO.CVal,15nH*%
%TO.CLbN,Inductor_SMD*%
%TO.CMnt,SMD*%
%TO.CRot,0*%
X52435000Y-69200000D03*
D11*
X53364999Y-68730001D02*
X53364999Y-69669999D01*
X51505001Y-69669999D01*
X51505001Y-68730001D01*
X53364999Y-68730001D01*
D12*
%TO.P,L1,1,1*%
X51950000Y-69200000D03*
D13*
%TO.P,L1,2,2*%
X52920000Y-69200000D03*
%TD*%
D10*
%TO.C,C4*%
%TO.CFtp,C_0402_1005Metric*%
%TO.CVal,0.1uF*%
%TO.CLbN,Capacitor_SMD*%
%TO.CMnt,SMD*%
%TO.CRot,0*%
X55320000Y-71300000D03*
D11*
X56229999Y-70840001D02*
X56229999Y-71759999D01*
X54410001Y-71759999D01*
X54410001Y-70840001D01*
X56229999Y-70840001D01*
D12*
%TO.P,C4,1*%
X54840000Y-71300000D03*
D13*
%TO.P,C4,2*%
X55800000Y-71300000D03*
%TD*%
D10*
%TO.C,R10*%
%TO.CFtp,R_0402_1005Metric*%
%TO.CVal,2.2K 1\u0025*%
%TO.CLbN,Resistor_SMD*%
%TO.CMnt,SMD*%
%TO.CRot,-90*%
X44400000Y-69190000D03*
D11*
X44869999Y-68260001D02*
X44869999Y-70119999D01*
X43930001Y-70119999D01*
X43930001Y-68260001D01*
X44869999Y-68260001D01*
D12*
%TO.P,R10,1*%
X44400000Y-68680000D03*
D13*
%TO.P,R10,2*%
X44400000Y-69700000D03*
%TD*%
D10*
%TO.C,C28*%
%TO.CFtp,C_0402_1005Metric*%
%TO.CVal,10uF*%
%TO.CLbN,Capacitor_SMD*%
%TO.CMnt,SMD*%
%TO.CRot,90*%
X44700000Y-67000000D03*
D11*
X45159999Y-66090001D02*
X45159999Y-67909999D01*
X44240001Y-67909999D01*
X44240001Y-66090001D01*
X45159999Y-66090001D01*
D12*
%TO.P,C28,1*%
X44700000Y-67480000D03*
D13*
%TO.P,C28,2*%
X44700000Y-66520000D03*
%TD*%
D10*
%TO.C,C20*%
%TO.CFtp,C_0402_1005Metric*%
%TO.CVal,0.1uF*%
%TO.CLbN,Capacitor_SMD*%
%TO.CMnt,SMD*%
%TO.CRot,0*%
X53540000Y-63740000D03*
D11*
X54449999Y-63280001D02*
X54449999Y-64199999D01*
X52630001Y-64199999D01*
X52630001Y-63280001D01*
X54449999Y-63280001D01*
D12*
%TO.P,C20,1*%
X53060000Y-63740000D03*
D13*
%TO.P,C20,2*%
X54020000Y-63740000D03*
%TD*%
D10*
%TO.C,R2*%
%TO.CFtp,R_0402_1005Metric*%
%TO.CVal,5.1K*%
%TO.CLbN,Resistor_SMD*%
%TO.CMnt,SMD*%
%TO.CRot,90*%
X50900000Y-67400000D03*
D11*
X51369999Y-66470001D02*
X51369999Y-68329999D01*
X50430001Y-68329999D01*
X50430001Y-66470001D01*
X51369999Y-66470001D01*
D12*
%TO.P,R2,1*%
X50900000Y-67910000D03*
D13*
%TO.P,R2,2*%
X50900000Y-66890000D03*
%TD*%
D10*
%TO.C,C26*%
%TO.CFtp,C_0402_1005Metric*%
%TO.CVal,12pF*%
%TO.CLbN,Capacitor_SMD*%
%TO.CMnt,SMD*%
%TO.CRot,0*%
X53640000Y-62510000D03*
D11*
X54549999Y-62050001D02*
X54549999Y-62969999D01*
X52730001Y-62969999D01*
X52730001Y-62050001D01*
X54549999Y-62050001D01*
D12*
%TO.P,C26,1*%
X53160000Y-62510000D03*
D13*
%TO.P,C26,2*%
X54120000Y-62510000D03*
%TD*%
D10*
%TO.C,R4*%
%TO.CFtp,R_0402_1005Metric*%
%TO.CVal,10K*%
%TO.CLbN,Resistor_SMD*%
%TO.CMnt,SMD*%
%TO.CRot,0*%
X49590000Y-71675000D03*
D11*
X50519999Y-71205001D02*
X50519999Y-72144999D01*
X48660001Y-72144999D01*
X48660001Y-71205001D01*
X50519999Y-71205001D01*
D12*
%TO.P,R4,1*%
X49080000Y-71675000D03*
D13*
%TO.P,R4,2*%
X50100000Y-71675000D03*
%TD*%
D10*
%TO.C,C9*%
%TO.CFtp,C_0402_1005Metric*%
%TO.CVal,22nF 25V*%
%TO.CLbN,Capacitor_SMD*%
%TO.CMnt,SMD*%
%TO.CRot,180*%
X51680000Y-64370000D03*
D11*
X52589999Y-63910001D02*
X52589999Y-64829999D01*
X50770001Y-64829999D01*
X50770001Y-63910001D01*
X52589999Y-63910001D01*
D12*
%TO.P,C9,1*%
X52160000Y-64370000D03*
D13*
%TO.P,C9,2*%
X51200000Y-64370000D03*
%TD*%
D10*
%TO.C,Fiducial_0.5_1_B*%
%TO.CFtp,Fiducial_0.5mm_Mask1mm*%
%TO.CVal,Fiducial_0.5mm_Mask1mm*%
%TO.CLbN,Fiducial*%
%TO.CMnt,SMD*%
%TO.CRot,0*%
X59000000Y-53000000D03*
D11*
X59043757Y-52248721D02*
X59215835Y-52279063D01*
X59376276Y-52348270D01*
X59376276Y-52348271D01*
X59516432Y-52452614D01*
X59628748Y-52586466D01*
X59628748Y-52586465D01*
X59707168Y-52742612D01*
X59747464Y-52912634D01*
X59749999Y-53000000D01*
X59747464Y-53087366D01*
X59707168Y-53257388D01*
X59628748Y-53413534D01*
X59516432Y-53547386D01*
X59376276Y-53651729D01*
X59215835Y-53720937D01*
X59043757Y-53751279D01*
X58869321Y-53741119D01*
X58701929Y-53691005D01*
X58701930Y-53691005D01*
X58550608Y-53603639D01*
X58423512Y-53483731D01*
X58327495Y-53337744D01*
X58267733Y-53173551D01*
X58247448Y-53000000D01*
X58267733Y-52826449D01*
X58327495Y-52662256D01*
X58423512Y-52516269D01*
X58550608Y-52396361D01*
X58701930Y-52308995D01*
X58701929Y-52308994D01*
X58869321Y-52258881D01*
X59043757Y-52248721D01*
D13*
%TO.P,Fiducial_0.5_1_B,*%
X59000000Y-53000000D03*
%TD*%
D10*
%TO.C,Fiducial_0.5_1_A*%
%TO.CFtp,Fiducial_0.5mm_Mask1mm*%
%TO.CVal,Fiducial_0.5mm_Mask1mm*%
%TO.CLbN,Fiducial*%
%TO.CMnt,SMD*%
%TO.CRot,0*%
X49000000Y-53000000D03*
D11*
X49043757Y-52248721D02*
X49215835Y-52279063D01*
X49376276Y-52348270D01*
X49376276Y-52348271D01*
X49516432Y-52452614D01*
X49628748Y-52586466D01*
X49628748Y-52586465D01*
X49707168Y-52742612D01*
X49747464Y-52912634D01*
X49749999Y-53000000D01*
X49747464Y-53087366D01*
X49707168Y-53257388D01*
X49628748Y-53413534D01*
X49516432Y-53547386D01*
X49376276Y-53651729D01*
X49215835Y-53720937D01*
X49043757Y-53751279D01*
X48869321Y-53741119D01*
X48701929Y-53691005D01*
X48701930Y-53691005D01*
X48550608Y-53603639D01*
X48423512Y-53483731D01*
X48327495Y-53337744D01*
X48267733Y-53173551D01*
X48247448Y-53000000D01*
X48267733Y-52826449D01*
X48327495Y-52662256D01*
X48423512Y-52516269D01*
X48550608Y-52396361D01*
X48701930Y-52308995D01*
X48701929Y-52308994D01*
X48869321Y-52258881D01*
X49043757Y-52248721D01*
D13*
%TO.P,Fiducial_0.5_1_A,*%
X49000000Y-53000000D03*
%TD*%
D15*
X43680000Y-44300000D02*
X63680000Y-44300000D01*
X63680000Y-74000000D01*
X43680000Y-74000000D01*
X43680000Y-44300000D01*
D16*
X56391750Y-51238250D02*
G75*
G02*
X50991750Y-51238250I-2700000J0D01*
G01*
X50991750Y-51238250D02*
G75*
G02*
X56391750Y-51238250I2700000J0D01*
G01*
M02*
