M48
; DRILL file {KiCad 8.0.4} date 2024-11-25T16:14:01-0400
; FORMAT={-:-/ absolute / inch / decimal}
; #@! TF.CreationDate,2024-11-25T16:14:01-04:00
; #@! TF.GenerationSoftware,Kicad,Pcbnew,8.0.4
; #@! TF.FileFunction,Plated,1,2,PTH
FMAT,2
INCH
; #@! TA.AperFunction,Plated,PTH,ViaDrill
T1C0.0079
; #@! TA.AperFunction,Plated,PTH,ComponentDrill
T2C0.0079
; #@! TA.AperFunction,Plated,PTH,ComponentDrill
T3C0.0100
%
G90
G05
T1
X1.7462Y-2.7559
X1.748Y-2.5945
X1.7598Y-2.5512
X1.7677Y-2.7047
X1.7696Y-2.7657
X1.7874Y-2.622
X1.7923Y-2.7244
X1.8031Y-2.8179
X1.8051Y-2.6496
X1.8071Y-2.4705
X1.8091Y-2.878
X1.811Y-2.6299
X1.8376Y-2.8307
X1.8457Y-2.5929
X1.8535Y-2.819
X1.8701Y-2.8297
X1.8984Y-2.298
X1.8986Y-2.8207
X1.9075Y-2.8877
X1.9104Y-2.6959
X1.9154Y-2.7805
X1.9252Y-2.8877
X1.9606Y-2.3524
X1.9752Y-2.3961
X1.9783Y-2.6358
X1.9803Y-2.5984
X1.9975Y-2.899
X2.0079Y-2.6181
X2.0079Y-2.8553
X2.0108Y-2.5728
X2.026Y-2.6945
X2.0283Y-2.6492
X2.0315Y-2.5866
X2.0541Y-2.4065
X2.0638Y-2.3756
X2.0709Y-2.4764
X2.0748Y-2.8346
X2.089Y-2.5283
X2.0929Y-2.6236
X2.1Y-2.65
X2.1091Y-2.3484
X2.122Y-2.7559
X2.124Y-2.8012
X2.1417Y-2.8661
X2.1447Y-2.5502
X2.1461Y-2.4669
X2.1673Y-2.4323
X2.1732Y-2.7165
X2.187Y-2.4563
X2.189Y-2.626
X2.2075Y-2.8146
X2.215Y-2.5406
X2.2244Y-2.626
X2.2244Y-2.7008
X2.2333Y-2.7919
X2.2402Y-2.8583
X2.2579Y-2.7923
X2.2598Y-2.626
X2.2598Y-2.7008
X2.315Y-2.5433
X2.3169Y-2.8306
X2.3376Y-2.7844
X2.3435Y-2.4459
X2.3465Y-2.5955
X2.3484Y-2.7638
X2.3503Y-2.6594
X2.3898Y-2.7185
X2.4171Y-2.7462
X2.4252Y-2.8244
X2.4409Y-2.6713
X2.4614Y-2.8374
X2.4902Y-2.8232
T2
X1.8772Y-2.1342
T3
X1.8845Y-2.469
X1.8845Y-2.5
X1.8845Y-2.531
X1.9155Y-2.469
X1.9155Y-2.5
X1.9155Y-2.531
M30
