%TF.GenerationSoftware,KiCad,Pcbnew,8.0.4*%
%TF.CreationDate,2024-11-25T16:13:59-04:00*%
%TF.ProjectId,Beacon-WirelessCharge,42656163-6f6e-42d5-9769-72656c657373,rev?*%
%TF.SameCoordinates,Original*%
%TF.FileFunction,Paste,Top*%
%TF.FilePolarity,Positive*%
%FSLAX46Y46*%
G04 Gerber Fmt 4.6, Leading zero omitted, Abs format (unit mm)*
G04 Created by KiCad (PCBNEW 8.0.4) date 2024-11-25 16:13:59*
%MOMM*%
%LPD*%
G01*
G04 APERTURE LIST*
G04 Aperture macros list*
%AMRoundRect*
0 Rectangle with rounded corners*
0 $1 Rounding radius*
0 $2 $3 $4 $5 $6 $7 $8 $9 X,Y pos of 4 corners*
0 Add a 4 corners polygon primitive as box body*
4,1,4,$2,$3,$4,$5,$6,$7,$8,$9,$2,$3,0*
0 Add four circle primitives for the rounded corners*
1,1,$1+$1,$2,$3*
1,1,$1+$1,$4,$5*
1,1,$1+$1,$6,$7*
1,1,$1+$1,$8,$9*
0 Add four rect primitives between the rounded corners*
20,1,$1+$1,$2,$3,$4,$5,0*
20,1,$1+$1,$4,$5,$6,$7,0*
20,1,$1+$1,$6,$7,$8,$9,0*
20,1,$1+$1,$8,$9,$2,$3,0*%
G04 Aperture macros list end*
%ADD10C,0.000000*%
%ADD11C,0.120000*%
%ADD12RoundRect,0.147500X-0.172500X0.147500X-0.172500X-0.147500X0.172500X-0.147500X0.172500X0.147500X0*%
%ADD13RoundRect,0.140000X-0.140000X-0.170000X0.140000X-0.170000X0.140000X0.170000X-0.140000X0.170000X0*%
%ADD14RoundRect,0.225000X-0.250000X0.225000X-0.250000X-0.225000X0.250000X-0.225000X0.250000X0.225000X0*%
%ADD15RoundRect,0.135000X0.135000X0.185000X-0.135000X0.185000X-0.135000X-0.185000X0.135000X-0.185000X0*%
%ADD16RoundRect,0.225000X0.225000X0.250000X-0.225000X0.250000X-0.225000X-0.250000X0.225000X-0.250000X0*%
%ADD17RoundRect,0.140000X-0.170000X0.140000X-0.170000X-0.140000X0.170000X-0.140000X0.170000X0.140000X0*%
%ADD18RoundRect,0.140000X0.140000X0.170000X-0.140000X0.170000X-0.140000X-0.170000X0.140000X-0.170000X0*%
%ADD19RoundRect,0.147500X-0.147500X-0.172500X0.147500X-0.172500X0.147500X0.172500X-0.147500X0.172500X0*%
%ADD20O,0.200000X0.850000*%
%ADD21O,0.850000X0.200000*%
%ADD22R,3.500000X3.500000*%
%ADD23RoundRect,0.218750X0.218750X0.256250X-0.218750X0.256250X-0.218750X-0.256250X0.218750X-0.256250X0*%
%ADD24RoundRect,0.135000X-0.185000X0.135000X-0.185000X-0.135000X0.185000X-0.135000X0.185000X0.135000X0*%
%ADD25RoundRect,0.140000X0.170000X-0.140000X0.170000X0.140000X-0.170000X0.140000X-0.170000X-0.140000X0*%
%ADD26RoundRect,0.317500X-0.682500X0.317500X-0.682500X-0.317500X0.682500X-0.317500X0.682500X0.317500X0*%
%ADD27RoundRect,0.218750X-0.218750X-0.256250X0.218750X-0.256250X0.218750X0.256250X-0.218750X0.256250X0*%
%ADD28RoundRect,0.135000X0.185000X-0.135000X0.185000X0.135000X-0.185000X0.135000X-0.185000X-0.135000X0*%
%ADD29RoundRect,0.135000X-0.135000X-0.185000X0.135000X-0.185000X0.135000X0.185000X-0.135000X0.185000X0*%
%ADD30R,0.900000X0.800000*%
%ADD31RoundRect,0.147500X0.172500X-0.147500X0.172500X0.147500X-0.172500X0.147500X-0.172500X-0.147500X0*%
%ADD32C,0.226000*%
G04 APERTURE END LIST*
D10*
%TO.C,U1*%
G36*
X46934999Y-61864999D02*
G01*
X46135000Y-61864999D01*
X46135000Y-61635000D01*
X46934999Y-61635000D01*
X46934999Y-61864999D01*
G37*
G36*
X46934999Y-62365001D02*
G01*
X46135000Y-62365001D01*
X46135000Y-62134999D01*
X46934999Y-62134999D01*
X46934999Y-62365001D01*
G37*
G36*
X46934999Y-62865000D02*
G01*
X46135000Y-62865000D01*
X46135000Y-62635000D01*
X46934999Y-62635000D01*
X46934999Y-62865000D01*
G37*
G36*
X46934999Y-63364999D02*
G01*
X46135000Y-63364999D01*
X46135000Y-63134999D01*
X46934999Y-63134999D01*
X46934999Y-63364999D01*
G37*
G36*
X46934999Y-63865001D02*
G01*
X46135000Y-63865001D01*
X46135000Y-63635001D01*
X46934999Y-63635001D01*
X46934999Y-63865001D01*
G37*
G36*
X46934999Y-64365000D02*
G01*
X46135000Y-64365000D01*
X46135000Y-64135000D01*
X46934999Y-64135000D01*
X46934999Y-64365000D01*
G37*
G36*
X46934999Y-64865001D02*
G01*
X46135000Y-64865001D01*
X46135000Y-64634999D01*
X46934999Y-64634999D01*
X46934999Y-64865001D01*
G37*
G36*
X46934999Y-65365000D02*
G01*
X46135000Y-65365000D01*
X46135000Y-65135001D01*
X46934999Y-65135001D01*
X46934999Y-65365000D01*
G37*
G36*
X47625000Y-61675000D02*
G01*
X47395000Y-61675000D01*
X47395000Y-60874999D01*
X47625000Y-60874999D01*
X47625000Y-61675000D01*
G37*
G36*
X47625000Y-66125001D02*
G01*
X47395000Y-66125001D01*
X47395000Y-65325000D01*
X47625000Y-65325000D01*
X47625000Y-66125001D01*
G37*
G36*
X48100000Y-61575001D02*
G01*
X47885000Y-61575001D01*
X47885000Y-60850001D01*
X48100000Y-60850001D01*
X48100000Y-61575001D01*
G37*
G36*
X48100000Y-66149999D02*
G01*
X47885000Y-66149999D01*
X47885000Y-65424999D01*
X48100000Y-65424999D01*
X48100000Y-66149999D01*
G37*
G36*
X48635000Y-61575001D02*
G01*
X48420000Y-61575001D01*
X48420000Y-60850001D01*
X48635000Y-60850001D01*
X48635000Y-61575001D01*
G37*
G36*
X48635000Y-66149999D02*
G01*
X48420000Y-66149999D01*
X48420000Y-65424999D01*
X48635000Y-65424999D01*
X48635000Y-66149999D01*
G37*
G36*
X49125000Y-61675000D02*
G01*
X48895000Y-61675000D01*
X48895000Y-60874999D01*
X49125000Y-60874999D01*
X49125000Y-61675000D01*
G37*
G36*
X49125000Y-66125001D02*
G01*
X48895000Y-66125001D01*
X48895000Y-65325000D01*
X49125000Y-65325000D01*
X49125000Y-66125001D01*
G37*
G36*
X50385000Y-61864999D02*
G01*
X49585001Y-61864999D01*
X49585001Y-61635000D01*
X50385000Y-61635000D01*
X50385000Y-61864999D01*
G37*
G36*
X50385000Y-62365001D02*
G01*
X49585001Y-62365001D01*
X49585001Y-62134999D01*
X50385000Y-62134999D01*
X50385000Y-62365001D01*
G37*
G36*
X50385000Y-62865000D02*
G01*
X49585001Y-62865000D01*
X49585001Y-62635000D01*
X50385000Y-62635000D01*
X50385000Y-62865000D01*
G37*
G36*
X50385000Y-63364999D02*
G01*
X49585001Y-63364999D01*
X49585001Y-63134999D01*
X50385000Y-63134999D01*
X50385000Y-63364999D01*
G37*
G36*
X50385000Y-63865001D02*
G01*
X49585001Y-63865001D01*
X49585001Y-63635001D01*
X50385000Y-63635001D01*
X50385000Y-63865001D01*
G37*
G36*
X50385000Y-64365000D02*
G01*
X49585001Y-64365000D01*
X49585001Y-64135000D01*
X50385000Y-64135000D01*
X50385000Y-64365000D01*
G37*
G36*
X50385000Y-64865001D02*
G01*
X49585001Y-64865001D01*
X49585001Y-64634999D01*
X50385000Y-64634999D01*
X50385000Y-64865001D01*
G37*
G36*
X50385000Y-65365000D02*
G01*
X49585001Y-65365000D01*
X49585001Y-65135001D01*
X50385000Y-65135001D01*
X50385000Y-65365000D01*
G37*
G36*
X47766300Y-62471179D02*
G01*
X47624879Y-62612600D01*
X47309930Y-62612600D01*
X47309930Y-62049931D01*
X47766300Y-62049931D01*
X47766300Y-62471179D01*
G37*
G36*
X47766300Y-64528821D02*
G01*
X47766300Y-64950069D01*
X47309930Y-64950069D01*
X47309930Y-64387400D01*
X47624879Y-64387400D01*
X47766300Y-64528821D01*
G37*
G36*
X49210070Y-62612600D02*
G01*
X48895121Y-62612600D01*
X48753700Y-62471179D01*
X48753700Y-62049931D01*
X49210070Y-62049931D01*
X49210070Y-62612600D01*
G37*
G36*
X49210070Y-64950069D02*
G01*
X48753700Y-64950069D01*
X48753700Y-64528821D01*
X48895121Y-64387400D01*
X49210070Y-64387400D01*
X49210070Y-64950069D01*
G37*
G36*
X47766300Y-62954021D02*
G01*
X47766300Y-63258579D01*
X47624879Y-63400000D01*
X47309930Y-63400000D01*
X47309930Y-62812600D01*
X47624879Y-62812600D01*
X47766300Y-62954021D01*
G37*
G36*
X47766300Y-63741421D02*
G01*
X47766300Y-64045979D01*
X47624879Y-64187400D01*
X47309930Y-64187400D01*
X47309930Y-63600000D01*
X47624879Y-63600000D01*
X47766300Y-63741421D01*
G37*
G36*
X48553700Y-62471179D02*
G01*
X48412279Y-62612600D01*
X48107721Y-62612600D01*
X47966300Y-62471179D01*
X47966300Y-62049931D01*
X48553700Y-62049931D01*
X48553700Y-62471179D01*
G37*
G36*
X48553700Y-64528821D02*
G01*
X48553700Y-64950069D01*
X47966300Y-64950069D01*
X47966300Y-64528821D01*
X48107721Y-64387400D01*
X48412279Y-64387400D01*
X48553700Y-64528821D01*
G37*
G36*
X49210070Y-63400000D02*
G01*
X48895121Y-63400000D01*
X48753700Y-63258579D01*
X48753700Y-62954021D01*
X48895121Y-62812600D01*
X49210070Y-62812600D01*
X49210070Y-63400000D01*
G37*
G36*
X49210070Y-64187400D02*
G01*
X48895121Y-64187400D01*
X48753700Y-64045979D01*
X48753700Y-63741421D01*
X48895121Y-63600000D01*
X49210070Y-63600000D01*
X49210070Y-64187400D01*
G37*
G36*
X48553700Y-62954021D02*
G01*
X48553700Y-63258579D01*
X48412279Y-63400000D01*
X48107721Y-63400000D01*
X47966300Y-63258579D01*
X47966300Y-62954021D01*
X48107721Y-62812600D01*
X48412279Y-62812600D01*
X48553700Y-62954021D01*
G37*
G36*
X48553700Y-63741421D02*
G01*
X48553700Y-64045979D01*
X48412279Y-64187400D01*
X48107721Y-64187400D01*
X47966300Y-64045979D01*
X47966300Y-63741421D01*
X48107721Y-63600000D01*
X48412279Y-63600000D01*
X48553700Y-63741421D01*
G37*
D11*
%TO.C,AE1*%
X62930000Y-66600000D02*
X61250000Y-66600000D01*
X61250000Y-65730000D01*
X62930000Y-65730000D01*
X62930000Y-66600000D01*
G36*
X62930000Y-66600000D02*
G01*
X61250000Y-66600000D01*
X61250000Y-65730000D01*
X62930000Y-65730000D01*
X62930000Y-66600000D01*
G37*
X62940000Y-60000000D02*
X61260000Y-60000000D01*
X61260000Y-59130000D01*
X62940000Y-59130000D01*
X62940000Y-60000000D01*
G36*
X62940000Y-60000000D02*
G01*
X61260000Y-60000000D01*
X61260000Y-59130000D01*
X62940000Y-59130000D01*
X62940000Y-60000000D01*
G37*
%TD*%
D12*
%TO.C,L7*%
X60025000Y-61055000D03*
X60025000Y-62025000D03*
%TD*%
D13*
%TO.C,C29*%
X58990000Y-60080000D03*
X59950000Y-60080000D03*
%TD*%
D14*
%TO.C,C11*%
X57353200Y-71513400D03*
X57353200Y-73063400D03*
%TD*%
D15*
%TO.C,R5*%
X45214000Y-65532000D03*
X44194000Y-65532000D03*
%TD*%
D14*
%TO.C,C12*%
X49500000Y-68875000D03*
X49500000Y-70425000D03*
%TD*%
D16*
%TO.C,C23*%
X51950000Y-59750000D03*
X50400000Y-59750000D03*
%TD*%
D17*
%TO.C,C24*%
X57050000Y-61075000D03*
X57050000Y-62035000D03*
%TD*%
D13*
%TO.C,C2*%
X46306800Y-59120000D03*
X47266800Y-59120000D03*
%TD*%
D18*
%TO.C,C8*%
X52180000Y-62470000D03*
X51220000Y-62470000D03*
%TD*%
D13*
%TO.C,C3*%
X46306800Y-60045600D03*
X47266800Y-60045600D03*
%TD*%
D18*
%TO.C,C21*%
X58050000Y-62960000D03*
X57090000Y-62960000D03*
%TD*%
D13*
%TO.C,C18*%
X57970000Y-64100000D03*
X58930000Y-64100000D03*
%TD*%
%TO.C,C1*%
X44401800Y-61391800D03*
X45361800Y-61391800D03*
%TD*%
%TO.C,C22*%
X51220000Y-61550000D03*
X52180000Y-61550000D03*
%TD*%
D19*
%TO.C,L4*%
X57065000Y-60050000D03*
X58035000Y-60050000D03*
%TD*%
D13*
%TO.C,C5*%
X44404400Y-63271400D03*
X45364400Y-63271400D03*
%TD*%
D20*
%TO.C,U2*%
X54699998Y-70125000D03*
X55100000Y-70125000D03*
X55499999Y-70125000D03*
X55899998Y-70125000D03*
X56300000Y-70125000D03*
X56699999Y-70125000D03*
X57099999Y-70125000D03*
X57500000Y-70125000D03*
X57900000Y-70125000D03*
X58299999Y-70125000D03*
D21*
X58900000Y-69525001D03*
X58900000Y-69124999D03*
X58900000Y-68725000D03*
X58900000Y-68325001D03*
X58900000Y-67924999D03*
X58900000Y-67525000D03*
X58900000Y-67125001D03*
X58900000Y-66724999D03*
X58900000Y-66325000D03*
X58900000Y-65925001D03*
D20*
X58299999Y-65324999D03*
X57900000Y-65324999D03*
X57500000Y-65324999D03*
X57099999Y-65324999D03*
X56699999Y-65324999D03*
X56300000Y-65324999D03*
X55899998Y-65324999D03*
X55499999Y-65324999D03*
X55100000Y-65324999D03*
X54699998Y-65324999D03*
D21*
X54100000Y-65925001D03*
X54100000Y-66325000D03*
X54100000Y-66724999D03*
X54100000Y-67125001D03*
X54100000Y-67525000D03*
X54100000Y-67924999D03*
X54100000Y-68325001D03*
X54100000Y-68725000D03*
X54100000Y-69124999D03*
X54100000Y-69525001D03*
D22*
X56500000Y-67725000D03*
%TD*%
D18*
%TO.C,C27*%
X54320000Y-58920000D03*
X53360000Y-58920000D03*
%TD*%
D23*
%TO.C,L2*%
X52700000Y-70400000D03*
X51125000Y-70400000D03*
%TD*%
D18*
%TO.C,C30*%
X46600000Y-67650000D03*
X45640000Y-67650000D03*
%TD*%
%TO.C,C14*%
X52130000Y-73250000D03*
X51170000Y-73250000D03*
%TD*%
D17*
%TO.C,C32*%
X59050000Y-61045000D03*
X59050000Y-62005000D03*
%TD*%
D13*
%TO.C,C31*%
X44400000Y-60460000D03*
X45360000Y-60460000D03*
%TD*%
D15*
%TO.C,R8*%
X52020000Y-71675000D03*
X51000000Y-71675000D03*
%TD*%
D24*
%TO.C,TH1*%
X48100000Y-72255000D03*
X48100000Y-73275000D03*
%TD*%
D12*
%TO.C,D1*%
X55100000Y-72330000D03*
X55100000Y-73300000D03*
%TD*%
D15*
%TO.C,R6*%
X52825000Y-65350000D03*
X51805000Y-65350000D03*
%TD*%
D18*
%TO.C,C10*%
X52160000Y-63400000D03*
X51200000Y-63400000D03*
%TD*%
D25*
%TO.C,C19*%
X55530000Y-63740000D03*
X55530000Y-62780000D03*
%TD*%
D26*
%TO.C,AE1*%
X62090000Y-59600000D03*
X62080000Y-66100000D03*
%TD*%
D24*
%TO.C,R3*%
X60700000Y-69690000D03*
X60700000Y-70710000D03*
%TD*%
D27*
%TO.C,L6*%
X47775000Y-67400000D03*
X49350000Y-67400000D03*
%TD*%
D28*
%TO.C,R1*%
X56100000Y-73300000D03*
X56100000Y-72280000D03*
%TD*%
D13*
%TO.C,C7*%
X44401800Y-62331600D03*
X45361800Y-62331600D03*
%TD*%
D25*
%TO.C,C25*%
X44800000Y-71580000D03*
X44800000Y-70620000D03*
%TD*%
D29*
%TO.C,R7*%
X51941000Y-66319400D03*
X52961000Y-66319400D03*
%TD*%
D18*
%TO.C,C17*%
X52895000Y-68250000D03*
X51935000Y-68250000D03*
%TD*%
D30*
%TO.C,Y1*%
X54780000Y-60170000D03*
X53380000Y-60170000D03*
X53380000Y-61270000D03*
X54780000Y-61270000D03*
%TD*%
D18*
%TO.C,C13*%
X53970000Y-71628000D03*
X53010000Y-71628000D03*
%TD*%
D17*
%TO.C,C16*%
X60700000Y-67818000D03*
X60700000Y-68778000D03*
%TD*%
D31*
%TO.C,L3*%
X58050000Y-62015000D03*
X58050000Y-61045000D03*
%TD*%
D15*
%TO.C,R11*%
X54050000Y-72600000D03*
X53030000Y-72600000D03*
%TD*%
D32*
%TO.C,U3*%
X46300000Y-69200000D03*
X46700000Y-69200000D03*
X47100000Y-69200000D03*
X47500000Y-69200000D03*
X47900000Y-69200000D03*
X46300000Y-69600000D03*
X46700000Y-69600000D03*
X47100000Y-69600000D03*
X47500000Y-69600000D03*
X47900000Y-69600000D03*
X46300000Y-70000000D03*
X46700000Y-70000000D03*
X47100000Y-70000000D03*
X47500000Y-70000000D03*
X47900000Y-70000000D03*
X46300000Y-70400000D03*
X46700000Y-70400000D03*
X47100000Y-70400000D03*
X47500000Y-70400000D03*
X47900000Y-70400000D03*
X46300000Y-70800000D03*
X46700000Y-70800000D03*
X47100000Y-70800000D03*
X47500000Y-70800000D03*
X47900000Y-70800000D03*
%TD*%
D13*
%TO.C,C6*%
X44401800Y-64211200D03*
X45361800Y-64211200D03*
%TD*%
D18*
%TO.C,C15*%
X52905000Y-67300000D03*
X51945000Y-67300000D03*
%TD*%
D19*
%TO.C,L1*%
X51950000Y-69200000D03*
X52920000Y-69200000D03*
%TD*%
D13*
%TO.C,C4*%
X54840000Y-71300000D03*
X55800000Y-71300000D03*
%TD*%
D24*
%TO.C,R10*%
X44400000Y-68680000D03*
X44400000Y-69700000D03*
%TD*%
D25*
%TO.C,C28*%
X44700000Y-67480000D03*
X44700000Y-66520000D03*
%TD*%
D13*
%TO.C,C20*%
X53060000Y-63740000D03*
X54020000Y-63740000D03*
%TD*%
D28*
%TO.C,R2*%
X50900000Y-67910000D03*
X50900000Y-66890000D03*
%TD*%
D13*
%TO.C,C26*%
X53160000Y-62510000D03*
X54120000Y-62510000D03*
%TD*%
D29*
%TO.C,R4*%
X49080000Y-71675000D03*
X50100000Y-71675000D03*
%TD*%
D18*
%TO.C,C9*%
X52160000Y-64370000D03*
X51200000Y-64370000D03*
%TD*%
M02*
