%TF.GenerationSoftware,KiCad,Pcbnew,8.0.4*%
%TF.CreationDate,2024-11-25T16:13:59-04:00*%
%TF.ProjectId,Beacon-WirelessCharge,42656163-6f6e-42d5-9769-72656c657373,rev?*%
%TF.SameCoordinates,Original*%
%TF.FileFunction,Copper,L1,Top*%
%TF.FilePolarity,Positive*%
%FSLAX46Y46*%
G04 Gerber Fmt 4.6, Leading zero omitted, Abs format (unit mm)*
G04 Created by KiCad (PCBNEW 8.0.4) date 2024-11-25 16:13:59*
%MOMM*%
%LPD*%
G01*
G04 APERTURE LIST*
G04 Aperture macros list*
%AMRoundRect*
0 Rectangle with rounded corners*
0 $1 Rounding radius*
0 $2 $3 $4 $5 $6 $7 $8 $9 X,Y pos of 4 corners*
0 Add a 4 corners polygon primitive as box body*
4,1,4,$2,$3,$4,$5,$6,$7,$8,$9,$2,$3,0*
0 Add four circle primitives for the rounded corners*
1,1,$1+$1,$2,$3*
1,1,$1+$1,$4,$5*
1,1,$1+$1,$6,$7*
1,1,$1+$1,$8,$9*
0 Add four rect primitives between the rounded corners*
20,1,$1+$1,$2,$3,$4,$5,0*
20,1,$1+$1,$4,$5,$6,$7,0*
20,1,$1+$1,$6,$7,$8,$9,0*
20,1,$1+$1,$8,$9,$2,$3,0*%
G04 Aperture macros list end*
%TA.AperFunction,EtchedComponent*%
%ADD10C,0.127000*%
%TD*%
%TA.AperFunction,EtchedComponent*%
%ADD11C,0.200000*%
%TD*%
%TA.AperFunction,SMDPad,CuDef*%
%ADD12RoundRect,0.147500X-0.172500X0.147500X-0.172500X-0.147500X0.172500X-0.147500X0.172500X0.147500X0*%
%TD*%
%TA.AperFunction,SMDPad,CuDef*%
%ADD13RoundRect,0.140000X-0.140000X-0.170000X0.140000X-0.170000X0.140000X0.170000X-0.140000X0.170000X0*%
%TD*%
%TA.AperFunction,SMDPad,CuDef*%
%ADD14RoundRect,0.225000X-0.250000X0.225000X-0.250000X-0.225000X0.250000X-0.225000X0.250000X0.225000X0*%
%TD*%
%TA.AperFunction,SMDPad,CuDef*%
%ADD15RoundRect,0.135000X0.135000X0.185000X-0.135000X0.185000X-0.135000X-0.185000X0.135000X-0.185000X0*%
%TD*%
%TA.AperFunction,SMDPad,CuDef*%
%ADD16RoundRect,0.225000X0.225000X0.250000X-0.225000X0.250000X-0.225000X-0.250000X0.225000X-0.250000X0*%
%TD*%
%TA.AperFunction,SMDPad,CuDef*%
%ADD17RoundRect,0.140000X-0.170000X0.140000X-0.170000X-0.140000X0.170000X-0.140000X0.170000X0.140000X0*%
%TD*%
%TA.AperFunction,ComponentPad*%
%ADD18RoundRect,0.125000X-0.125000X-0.175000X0.125000X-0.175000X0.125000X0.175000X-0.125000X0.175000X0*%
%TD*%
%TA.AperFunction,SMDPad,CuDef*%
%ADD19RoundRect,0.031750X-0.031750X-0.095250X0.031750X-0.095250X0.031750X0.095250X-0.031750X0.095250X0*%
%TD*%
%TA.AperFunction,SMDPad,CuDef*%
%ADD20RoundRect,0.140000X0.140000X0.170000X-0.140000X0.170000X-0.140000X-0.170000X0.140000X-0.170000X0*%
%TD*%
%TA.AperFunction,SMDPad,CuDef*%
%ADD21RoundRect,0.140000X-0.560000X-0.560000X0.560000X-0.560000X0.560000X0.560000X-0.560000X0.560000X0*%
%TD*%
%TA.AperFunction,SMDPad,CuDef*%
%ADD22RoundRect,0.147500X-0.147500X-0.172500X0.147500X-0.172500X0.147500X0.172500X-0.147500X0.172500X0*%
%TD*%
%TA.AperFunction,SMDPad,CuDef*%
%ADD23O,0.200000X0.850000*%
%TD*%
%TA.AperFunction,SMDPad,CuDef*%
%ADD24O,0.850000X0.200000*%
%TD*%
%TA.AperFunction,SMDPad,CuDef*%
%ADD25R,3.500000X3.500000*%
%TD*%
%TA.AperFunction,SMDPad,CuDef*%
%ADD26R,0.280000X0.850000*%
%TD*%
%TA.AperFunction,SMDPad,CuDef*%
%ADD27R,0.850000X0.280000*%
%TD*%
%TA.AperFunction,ComponentPad*%
%ADD28C,0.508000*%
%TD*%
%TA.AperFunction,SMDPad,CuDef*%
%ADD29R,2.050000X3.049999*%
%TD*%
%TA.AperFunction,SMDPad,CuDef*%
%ADD30RoundRect,0.218750X0.218750X0.256250X-0.218750X0.256250X-0.218750X-0.256250X0.218750X-0.256250X0*%
%TD*%
%TA.AperFunction,SMDPad,CuDef*%
%ADD31RoundRect,0.135000X-0.185000X0.135000X-0.185000X-0.135000X0.185000X-0.135000X0.185000X0.135000X0*%
%TD*%
%TA.AperFunction,SMDPad,CuDef*%
%ADD32C,0.500000*%
%TD*%
%TA.AperFunction,SMDPad,CuDef*%
%ADD33RoundRect,0.140000X0.170000X-0.140000X0.170000X0.140000X-0.170000X0.140000X-0.170000X-0.140000X0*%
%TD*%
%TA.AperFunction,SMDPad,CuDef*%
%ADD34RoundRect,0.317500X-0.682500X0.317500X-0.682500X-0.317500X0.682500X-0.317500X0.682500X0.317500X0*%
%TD*%
%TA.AperFunction,SMDPad,CuDef*%
%ADD35RoundRect,0.218750X-0.218750X-0.256250X0.218750X-0.256250X0.218750X0.256250X-0.218750X0.256250X0*%
%TD*%
%TA.AperFunction,SMDPad,CuDef*%
%ADD36RoundRect,0.135000X0.185000X-0.135000X0.185000X0.135000X-0.185000X0.135000X-0.185000X-0.135000X0*%
%TD*%
%TA.AperFunction,SMDPad,CuDef*%
%ADD37RoundRect,0.135000X-0.135000X-0.185000X0.135000X-0.185000X0.135000X0.185000X-0.135000X0.185000X0*%
%TD*%
%TA.AperFunction,SMDPad,CuDef*%
%ADD38R,0.900000X0.800000*%
%TD*%
%TA.AperFunction,SMDPad,CuDef*%
%ADD39RoundRect,0.147500X0.172500X-0.147500X0.172500X0.147500X-0.172500X0.147500X-0.172500X-0.147500X0*%
%TD*%
%TA.AperFunction,SMDPad,CuDef*%
%ADD40C,0.226000*%
%TD*%
%TA.AperFunction,ViaPad*%
%ADD41C,0.400000*%
%TD*%
%TA.AperFunction,Conductor*%
%ADD42C,0.400000*%
%TD*%
%TA.AperFunction,Conductor*%
%ADD43C,0.154000*%
%TD*%
%TA.AperFunction,Conductor*%
%ADD44C,0.127000*%
%TD*%
%TA.AperFunction,Conductor*%
%ADD45C,0.200000*%
%TD*%
%TA.AperFunction,Conductor*%
%ADD46C,0.101600*%
%TD*%
%TA.AperFunction,Conductor*%
%ADD47C,0.790000*%
%TD*%
%TA.AperFunction,Conductor*%
%ADD48C,0.700000*%
%TD*%
G04 APERTURE END LIST*
D10*
%TO.C,L5*%
X44191750Y-57738250D02*
X44191750Y-44992250D01*
X44445750Y-44738250D02*
X62937750Y-44738250D01*
X44445750Y-57484250D02*
X44445750Y-45246250D01*
X44699750Y-44992250D02*
X62683750Y-44992250D01*
X44699750Y-57230250D02*
X44699750Y-45500250D01*
X44953750Y-45246250D02*
X62429750Y-45246250D01*
X44953750Y-56976250D02*
X44953750Y-45754250D01*
X45207750Y-45500250D02*
X62175750Y-45500250D01*
X45207750Y-56722250D02*
X45207750Y-46008250D01*
X45461750Y-45754250D02*
X61921750Y-45754250D01*
X45461750Y-56468250D02*
X45461750Y-46262250D01*
X45715750Y-46008250D02*
X61667750Y-46008250D01*
X45715750Y-56214250D02*
X45715750Y-46516250D01*
X45969750Y-46262250D02*
X61413750Y-46262250D01*
X45969750Y-55960250D02*
X45969750Y-46770250D01*
X46223750Y-46516250D02*
X61159750Y-46516250D01*
X46223750Y-55706250D02*
X46223750Y-47024250D01*
X46477750Y-46770250D02*
X60905750Y-46770250D01*
X46477750Y-55452250D02*
X46477750Y-47278250D01*
X46731750Y-47024250D02*
X60651750Y-47024250D01*
X46731750Y-55198250D02*
X46731750Y-47532250D01*
X46985750Y-47278250D02*
X60397750Y-47278250D01*
X46985750Y-54944250D02*
X46985750Y-47786250D01*
X47239750Y-47532250D02*
X60143750Y-47532250D01*
X47239750Y-54690250D02*
X47239750Y-48040250D01*
X47493750Y-47786250D02*
X59889750Y-47786250D01*
D11*
X47541750Y-54638250D02*
X47541750Y-54428250D01*
D10*
X59889750Y-54690250D02*
X47493750Y-54690250D01*
X60143750Y-48040250D02*
X60143750Y-54436250D01*
X60143750Y-54944250D02*
X47493750Y-54944250D01*
X60397750Y-47786250D02*
X60397750Y-54690250D01*
X60397750Y-55198250D02*
X47239750Y-55198250D01*
X60651750Y-47532250D02*
X60651750Y-54944250D01*
X60651750Y-55452250D02*
X46985750Y-55452250D01*
X60905750Y-47278250D02*
X60905750Y-55198250D01*
X60905750Y-55706250D02*
X46731750Y-55706250D01*
X61159750Y-47024250D02*
X61159750Y-55452250D01*
X61159750Y-55960250D02*
X46477750Y-55960250D01*
X61413750Y-46770250D02*
X61413750Y-55706250D01*
X61413750Y-56214250D02*
X46223750Y-56214250D01*
X61667750Y-46516250D02*
X61667750Y-55960250D01*
X61667750Y-56468250D02*
X45969750Y-56468250D01*
X61921750Y-46262250D02*
X61921750Y-56214250D01*
X61921750Y-56722250D02*
X45715750Y-56722250D01*
X62175750Y-46008250D02*
X62175750Y-56468250D01*
X62175750Y-56976250D02*
X45461750Y-56976250D01*
X62429750Y-45754250D02*
X62429750Y-56722250D01*
X62429750Y-57230250D02*
X45207750Y-57230250D01*
X62683750Y-45500250D02*
X62683750Y-56976250D01*
X62683750Y-57484250D02*
X44953750Y-57484250D01*
X62937750Y-45246250D02*
X62937750Y-57230250D01*
X62937750Y-57738250D02*
X44699750Y-57738250D01*
X63191750Y-44992250D02*
X63191750Y-57484250D01*
X44191750Y-44992250D02*
G75*
G02*
X44445750Y-44738250I254000J0D01*
G01*
X44445750Y-45246250D02*
G75*
G02*
X44699750Y-44992250I254000J0D01*
G01*
X44699750Y-45500250D02*
G75*
G02*
X44953750Y-45246250I254000J0D01*
G01*
X44699750Y-57738250D02*
G75*
G02*
X44445750Y-57484250I0J254000D01*
G01*
X44953750Y-45754250D02*
G75*
G02*
X45207750Y-45500250I254000J0D01*
G01*
X44953750Y-57484250D02*
G75*
G02*
X44699750Y-57230250I0J254000D01*
G01*
X45207750Y-46008250D02*
G75*
G02*
X45461750Y-45754250I254000J0D01*
G01*
X45207750Y-57230250D02*
G75*
G02*
X44953750Y-56976250I0J254000D01*
G01*
X45461750Y-46262250D02*
G75*
G02*
X45715750Y-46008250I254000J0D01*
G01*
X45461750Y-56976250D02*
G75*
G02*
X45207750Y-56722250I0J254000D01*
G01*
X45715750Y-46516250D02*
G75*
G02*
X45969750Y-46262250I254000J0D01*
G01*
X45715750Y-56722250D02*
G75*
G02*
X45461750Y-56468250I0J254000D01*
G01*
X45969750Y-46770250D02*
G75*
G02*
X46223750Y-46516250I254000J0D01*
G01*
X45969750Y-56468250D02*
G75*
G02*
X45715750Y-56214250I0J254000D01*
G01*
X46223750Y-47024250D02*
G75*
G02*
X46477750Y-46770250I254000J0D01*
G01*
X46223750Y-56214250D02*
G75*
G02*
X45969750Y-55960250I0J254000D01*
G01*
X46477750Y-47278250D02*
G75*
G02*
X46731750Y-47024250I254000J0D01*
G01*
X46477750Y-55960250D02*
G75*
G02*
X46223750Y-55706250I0J254000D01*
G01*
X46731750Y-47532250D02*
G75*
G02*
X46985750Y-47278250I254000J0D01*
G01*
X46731750Y-55706250D02*
G75*
G02*
X46477750Y-55452250I0J254000D01*
G01*
X46985750Y-47786250D02*
G75*
G02*
X47239750Y-47532250I254000J0D01*
G01*
X46985750Y-55452250D02*
G75*
G02*
X46731750Y-55198250I0J254000D01*
G01*
X47239750Y-48040250D02*
G75*
G02*
X47493750Y-47786250I254000J0D01*
G01*
X47239750Y-55198250D02*
G75*
G02*
X46985750Y-54944250I0J254000D01*
G01*
X47493750Y-54944250D02*
G75*
G02*
X47239750Y-54690250I0J254000D01*
G01*
X59889750Y-47786250D02*
G75*
G02*
X60143750Y-48040250I0J-254000D01*
G01*
X60143750Y-47532250D02*
G75*
G02*
X60397750Y-47786250I0J-254000D01*
G01*
X60143750Y-54436250D02*
G75*
G02*
X59889750Y-54690250I-254000J0D01*
G01*
X60397750Y-47278250D02*
G75*
G02*
X60651750Y-47532250I0J-254000D01*
G01*
X60397750Y-54690250D02*
G75*
G02*
X60143750Y-54944250I-254000J0D01*
G01*
X60651750Y-47024250D02*
G75*
G02*
X60905750Y-47278250I0J-254000D01*
G01*
X60651750Y-54944250D02*
G75*
G02*
X60397750Y-55198250I-254000J0D01*
G01*
X60905750Y-46770250D02*
G75*
G02*
X61159750Y-47024250I0J-254000D01*
G01*
X60905750Y-55198250D02*
G75*
G02*
X60651750Y-55452250I-254000J0D01*
G01*
X61159750Y-46516250D02*
G75*
G02*
X61413750Y-46770250I0J-254000D01*
G01*
X61159750Y-55452250D02*
G75*
G02*
X60905750Y-55706250I-254000J0D01*
G01*
X61413750Y-46262250D02*
G75*
G02*
X61667750Y-46516250I0J-254000D01*
G01*
X61413750Y-55706250D02*
G75*
G02*
X61159750Y-55960250I-254000J0D01*
G01*
X61667750Y-46008250D02*
G75*
G02*
X61921750Y-46262250I0J-254000D01*
G01*
X61667750Y-55960250D02*
G75*
G02*
X61413750Y-56214250I-254000J0D01*
G01*
X61921750Y-45754250D02*
G75*
G02*
X62175750Y-46008250I0J-254000D01*
G01*
X61921750Y-56214250D02*
G75*
G02*
X61667750Y-56468250I-254000J0D01*
G01*
X62175750Y-45500250D02*
G75*
G02*
X62429750Y-45754250I0J-254000D01*
G01*
X62175750Y-56468250D02*
G75*
G02*
X61921750Y-56722250I-254000J0D01*
G01*
X62429750Y-45246250D02*
G75*
G02*
X62683750Y-45500250I0J-254000D01*
G01*
X62429750Y-56722250D02*
G75*
G02*
X62175750Y-56976250I-254000J0D01*
G01*
X62683750Y-44992250D02*
G75*
G02*
X62937750Y-45246250I0J-254000D01*
G01*
X62683750Y-56976250D02*
G75*
G02*
X62429750Y-57230250I-254000J0D01*
G01*
X62937750Y-44738250D02*
G75*
G02*
X63191750Y-44992250I0J-254000D01*
G01*
X62937750Y-57230250D02*
G75*
G02*
X62683750Y-57484250I-254000J0D01*
G01*
X63191750Y-57484250D02*
G75*
G02*
X62937750Y-57738250I-254000J0D01*
G01*
%TD*%
D12*
%TO.P,L7,1,1*%
%TO.N,Net-(AE1-FEED)*%
X60025000Y-61055000D03*
%TO.P,L7,2,2*%
%TO.N,GND*%
X60025000Y-62025000D03*
%TD*%
D13*
%TO.P,C29,1*%
%TO.N,Net-(C29-Pad1)*%
X58990000Y-60080000D03*
%TO.P,C29,2*%
%TO.N,Net-(AE1-FEED)*%
X59950000Y-60080000D03*
%TD*%
D14*
%TO.P,C11,1*%
%TO.N,VDD_nRF*%
X57353200Y-71513400D03*
%TO.P,C11,2*%
%TO.N,GND*%
X57353200Y-73063400D03*
%TD*%
D15*
%TO.P,R5,1*%
%TO.N,Net-(U1-FOD)*%
X45214000Y-65532000D03*
%TO.P,R5,2*%
%TO.N,GND*%
X44194000Y-65532000D03*
%TD*%
D14*
%TO.P,C12,1*%
%TO.N,VDD_nRF*%
X49500000Y-68875000D03*
%TO.P,C12,2*%
%TO.N,GND*%
X49500000Y-70425000D03*
%TD*%
D16*
%TO.P,C23,1*%
%TO.N,Net-(U1-RECT)*%
X51950000Y-59750000D03*
%TO.P,C23,2*%
%TO.N,GND*%
X50400000Y-59750000D03*
%TD*%
D17*
%TO.P,C24,1*%
%TO.N,Net-(C24-Pad1)*%
X57050000Y-61075000D03*
%TO.P,C24,2*%
%TO.N,GND*%
X57050000Y-62035000D03*
%TD*%
D13*
%TO.P,C2,1*%
%TO.N,Net-(U1-AC1)*%
X46306800Y-59120000D03*
%TO.P,C2,2*%
%TO.N,Net-(J1-Pin_1)*%
X47266800Y-59120000D03*
%TD*%
D18*
%TO.P,L5,0*%
%TO.N,N/C*%
X47681750Y-54208250D03*
D19*
%TO.P,L5,1,1*%
%TO.N,Net-(J2-Pin_1)*%
X44191750Y-57738250D03*
%TD*%
D20*
%TO.P,C8,1*%
%TO.N,Net-(J1-Pin_1)*%
X52180000Y-62470000D03*
%TO.P,C8,2*%
%TO.N,Net-(U1-BOOT2)*%
X51220000Y-62470000D03*
%TD*%
D13*
%TO.P,C3,1*%
%TO.N,Net-(U1-AC1)*%
X46306800Y-60045600D03*
%TO.P,C3,2*%
%TO.N,Net-(J1-Pin_1)*%
X47266800Y-60045600D03*
%TD*%
D21*
%TO.P,J2,1,Pin_1*%
%TO.N,Net-(J2-Pin_1)*%
X44780000Y-59150000D03*
%TD*%
D20*
%TO.P,C21,1*%
%TO.N,Net-(U2-ANT)*%
X58050000Y-62960000D03*
%TO.P,C21,2*%
%TO.N,GND*%
X57090000Y-62960000D03*
%TD*%
D13*
%TO.P,C18,1*%
%TO.N,Net-(U2-DEC5)*%
X57970000Y-64100000D03*
%TO.P,C18,2*%
%TO.N,GND*%
X58930000Y-64100000D03*
%TD*%
%TO.P,C1,1*%
%TO.N,Net-(J2-Pin_1)*%
X44401800Y-61391800D03*
%TO.P,C1,2*%
%TO.N,Net-(U1-AC1)*%
X45361800Y-61391800D03*
%TD*%
D21*
%TO.P,J9,1,Pin_1*%
%TO.N,GND*%
X60550000Y-72950000D03*
%TD*%
D13*
%TO.P,C22,1*%
%TO.N,Net-(U1-RECT)*%
X51220000Y-61550000D03*
%TO.P,C22,2*%
%TO.N,GND*%
X52180000Y-61550000D03*
%TD*%
D22*
%TO.P,L4,1,1*%
%TO.N,Net-(C24-Pad1)*%
X57065000Y-60050000D03*
%TO.P,L4,2,2*%
%TO.N,Net-(C29-Pad1)*%
X58035000Y-60050000D03*
%TD*%
D13*
%TO.P,C5,1*%
%TO.N,Net-(U1-AC1)*%
X44404400Y-63271400D03*
%TO.P,C5,2*%
%TO.N,Net-(U1-CLMP1)*%
X45364400Y-63271400D03*
%TD*%
D23*
%TO.P,U2,1,DEC1*%
%TO.N,Net-(U2-DEC1)*%
X54699998Y-70125000D03*
%TO.P,U2,2,P0.00/XL1*%
%TO.N,unconnected-(U2-P0.00{slash}XL1-Pad2)*%
X55100000Y-70125000D03*
%TO.P,U2,3,P0.01/XL2*%
%TO.N,unconnected-(U2-P0.01{slash}XL2-Pad3)*%
X55499999Y-70125000D03*
%TO.P,U2,4,P0.04/AIN2*%
%TO.N,Net-(U2-P0.04{slash}AIN2)*%
X55899998Y-70125000D03*
%TO.P,U2,5,P0.05/AIN3*%
%TO.N,I2C_SCL*%
X56300000Y-70125000D03*
%TO.P,U2,6,P1.09*%
%TO.N,unconnected-(U2-P1.09-Pad6)*%
X56699999Y-70125000D03*
%TO.P,U2,7,P0.11*%
%TO.N,unconnected-(U2-P0.11-Pad7)*%
X57099999Y-70125000D03*
%TO.P,U2,8,VDD*%
%TO.N,VDD_nRF*%
X57500000Y-70125000D03*
%TO.P,U2,9,VDDH*%
X57900000Y-70125000D03*
%TO.P,U2,10,VBUS*%
%TO.N,GND*%
X58299999Y-70125000D03*
D24*
%TO.P,U2,11,DECUSB*%
%TO.N,unconnected-(U2-DECUSB-Pad11)*%
X58900000Y-69525001D03*
%TO.P,U2,12,D-*%
%TO.N,unconnected-(U2-D--Pad12)*%
X58900000Y-69124999D03*
%TO.P,U2,13,D+*%
%TO.N,unconnected-(U2-D+-Pad13)*%
X58900000Y-68725000D03*
%TO.P,U2,14,P0.15*%
%TO.N,I2C_SDA*%
X58900000Y-68325001D03*
%TO.P,U2,15,P0.17*%
%TO.N,CD_N*%
X58900000Y-67924999D03*
%TO.P,U2,16,P0.18/RESET*%
%TO.N,Net-(U2-P0.18{slash}RESET)*%
X58900000Y-67525000D03*
%TO.P,U2,17,P0.20*%
%TO.N,unconnected-(U2-P0.20-Pad17)*%
X58900000Y-67125001D03*
%TO.P,U2,18,VDD*%
%TO.N,VDD_nRF*%
X58900000Y-66724999D03*
%TO.P,U2,19,SWDIO*%
%TO.N,Net-(J4-Pin_1)*%
X58900000Y-66325000D03*
%TO.P,U2,20,SWDCLK*%
%TO.N,Net-(J3-Pin_1)*%
X58900000Y-65925001D03*
D23*
%TO.P,U2,21,DEC5*%
%TO.N,Net-(U2-DEC5)*%
X58299999Y-65324999D03*
%TO.P,U2,22,P0.09/NFC1*%
%TO.N,unconnected-(U2-P0.09{slash}NFC1-Pad22)*%
X57900000Y-65324999D03*
%TO.P,U2,23,P0.10/NFC2*%
%TO.N,unconnected-(U2-P0.10{slash}NFC2-Pad23)*%
X57500000Y-65324999D03*
%TO.P,U2,24,ANT*%
%TO.N,Net-(U2-ANT)*%
X57099999Y-65324999D03*
%TO.P,U2,25,VSS*%
%TO.N,GND*%
X56699999Y-65324999D03*
%TO.P,U2,26,DEC6*%
%TO.N,Net-(U2-DEC4)*%
X56300000Y-65324999D03*
%TO.P,U2,27,DEC3*%
%TO.N,Net-(U2-DEC3)*%
X55899998Y-65324999D03*
%TO.P,U2,28,XC1*%
%TO.N,Net-(U2-XC1)*%
X55499999Y-65324999D03*
%TO.P,U2,29,XC2*%
%TO.N,Net-(U2-XC2)*%
X55100000Y-65324999D03*
%TO.P,U2,30,VDD*%
%TO.N,VDD_nRF*%
X54699998Y-65324999D03*
D24*
%TO.P,U2,31,P0.03/AIN1*%
%TO.N,unconnected-(U2-P0.03{slash}AIN1-Pad31)*%
X54100000Y-65925001D03*
%TO.P,U2,32,P0.02/AIN0*%
%TO.N,unconnected-(U2-P0.02{slash}AIN0-Pad32)*%
X54100000Y-66325000D03*
%TO.P,U2,33,P0.28/AIN4*%
%TO.N,unconnected-(U2-P0.28{slash}AIN4-Pad33)*%
X54100000Y-66724999D03*
%TO.P,U2,34,P0.29/AIN5*%
%TO.N,unconnected-(U2-P0.29{slash}AIN5-Pad34)*%
X54100000Y-67125001D03*
%TO.P,U2,35,P0.30/AIN6*%
%TO.N,unconnected-(U2-P0.30{slash}AIN6-Pad35)*%
X54100000Y-67525000D03*
%TO.P,U2,36,P0.31/AIN7*%
%TO.N,unconnected-(U2-P0.31{slash}AIN7-Pad36)*%
X54100000Y-67924999D03*
%TO.P,U2,37,VSS*%
%TO.N,GND*%
X54100000Y-68325001D03*
%TO.P,U2,38,DEC4*%
%TO.N,Net-(U2-DEC4)*%
X54100000Y-68725000D03*
%TO.P,U2,39,DCC*%
%TO.N,Net-(U2-DCC)*%
X54100000Y-69124999D03*
%TO.P,U2,40,VDD*%
%TO.N,VDD_nRF*%
X54100000Y-69525001D03*
D25*
%TO.P,U2,41,VSS*%
%TO.N,GND*%
X56500000Y-67725000D03*
%TD*%
D26*
%TO.P,U1,1,PGND*%
%TO.N,GND*%
X47509999Y-61275001D03*
D27*
%TO.P,U1,2,AC1*%
%TO.N,Net-(U1-AC1)*%
X46535000Y-61750001D03*
%TO.P,U1,3,BOOT1*%
%TO.N,Net-(U1-BOOT1)*%
X46535000Y-62250000D03*
%TO.P,U1,4,OUT*%
%TO.N,Net-(U1-OUT)*%
X46535000Y-62749999D03*
%TO.P,U1,5,CLMP1*%
%TO.N,Net-(U1-CLMP1)*%
X46535000Y-63250000D03*
%TO.P,U1,6,COM1*%
%TO.N,Net-(U1-COM1)*%
X46535000Y-63750000D03*
%TO.P,U1,7,~{CHG}*%
%TO.N,~{CHARGE}*%
X46535000Y-64250001D03*
%TO.P,U1,8,~{AD-EN}*%
%TO.N,unconnected-(U1-~{AD-EN}-Pad8)*%
X46535000Y-64750000D03*
%TO.P,U1,9,AD*%
%TO.N,GND*%
X46535000Y-65249999D03*
D26*
%TO.P,U1,10,EN1*%
X47509999Y-65724999D03*
%TO.P,U1,11,EN2*%
X49010001Y-65724999D03*
D27*
%TO.P,U1,12,ILIM*%
%TO.N,Net-(U1-ILIM)*%
X49985000Y-65249999D03*
%TO.P,U1,13,TS-CTRL*%
%TO.N,Net-(U1-TS-CTRL)*%
X49985000Y-64750000D03*
%TO.P,U1,14,FOD*%
%TO.N,Net-(U1-FOD)*%
X49985000Y-64250001D03*
%TO.P,U1,15,COM2*%
%TO.N,Net-(U1-COM2)*%
X49985000Y-63750000D03*
%TO.P,U1,16,CLMP2*%
%TO.N,Net-(U1-CLMP2)*%
X49985000Y-63250000D03*
%TO.P,U1,17,BOOT2*%
%TO.N,Net-(U1-BOOT2)*%
X49985000Y-62749999D03*
%TO.P,U1,18,RECT*%
%TO.N,Net-(U1-RECT)*%
X49985000Y-62250000D03*
%TO.P,U1,19,AC2*%
%TO.N,Net-(J1-Pin_1)*%
X49985000Y-61750001D03*
D26*
%TO.P,U1,20,PGND*%
%TO.N,GND*%
X49010001Y-61275001D03*
D28*
%TO.P,U1,21,EPAD*%
X47866300Y-62712600D03*
X47866300Y-63500000D03*
X47866300Y-64287400D03*
D29*
X48260000Y-63500000D03*
D28*
X48653700Y-62712600D03*
X48653700Y-63500000D03*
X48653700Y-64287400D03*
%TD*%
D20*
%TO.P,C27,1*%
%TO.N,Net-(U2-XC1)*%
X54320000Y-58920000D03*
%TO.P,C27,2*%
%TO.N,GND*%
X53360000Y-58920000D03*
%TD*%
D30*
%TO.P,L2,1,1*%
%TO.N,Net-(U2-DCC)*%
X52700000Y-70400000D03*
%TO.P,L2,2,2*%
%TO.N,Net-(L1-Pad1)*%
X51125000Y-70400000D03*
%TD*%
D20*
%TO.P,C30,1*%
%TO.N,Net-(C30-Pad1)*%
X46600000Y-67650000D03*
%TO.P,C30,2*%
%TO.N,GND*%
X45640000Y-67650000D03*
%TD*%
D21*
%TO.P,J5,1,Pin_1*%
%TO.N,VBat*%
X44725000Y-72975000D03*
%TD*%
D20*
%TO.P,C14,1*%
%TO.N,Net-(U2-P0.18{slash}RESET)*%
X52130000Y-73250000D03*
%TO.P,C14,2*%
%TO.N,~{CHARGE}*%
X51170000Y-73250000D03*
%TD*%
D17*
%TO.P,C32,1*%
%TO.N,Net-(C29-Pad1)*%
X59050000Y-61045000D03*
%TO.P,C32,2*%
%TO.N,GND*%
X59050000Y-62005000D03*
%TD*%
D13*
%TO.P,C31,1*%
%TO.N,Net-(J2-Pin_1)*%
X44400000Y-60460000D03*
%TO.P,C31,2*%
%TO.N,Net-(U1-AC1)*%
X45360000Y-60460000D03*
%TD*%
D15*
%TO.P,R8,1*%
%TO.N,I2C_SDA*%
X52020000Y-71675000D03*
%TO.P,R8,2*%
%TO.N,VDD_nRF*%
X51000000Y-71675000D03*
%TD*%
D31*
%TO.P,TH1,1*%
%TO.N,BatNTC*%
X48100000Y-72255000D03*
%TO.P,TH1,2*%
%TO.N,GND*%
X48100000Y-73275000D03*
%TD*%
D12*
%TO.P,D1,1,K*%
%TO.N,GND*%
X55100000Y-72330000D03*
%TO.P,D1,2,A*%
%TO.N,Net-(D1-A)*%
X55100000Y-73300000D03*
%TD*%
D15*
%TO.P,R6,1*%
%TO.N,Net-(U1-FOD)*%
X52825000Y-65350000D03*
%TO.P,R6,2*%
%TO.N,Net-(U1-RECT)*%
X51805000Y-65350000D03*
%TD*%
D20*
%TO.P,C10,1*%
%TO.N,Net-(J1-Pin_1)*%
X52160000Y-63400000D03*
%TO.P,C10,2*%
%TO.N,Net-(U1-CLMP2)*%
X51200000Y-63400000D03*
%TD*%
D21*
%TO.P,J6,1,Pin_1*%
%TO.N,BatNTC*%
X46800000Y-72950000D03*
%TD*%
D32*
%TO.P,Fiducial_0.5_1_A,*%
%TO.N,*%
X49000000Y-53000000D03*
%TD*%
D21*
%TO.P,J1,1,Pin_1*%
%TO.N,Net-(J1-Pin_1)*%
X48725000Y-59450000D03*
%TD*%
D33*
%TO.P,C19,1*%
%TO.N,Net-(U2-DEC3)*%
X55530000Y-63740000D03*
%TO.P,C19,2*%
%TO.N,GND*%
X55530000Y-62780000D03*
%TD*%
D34*
%TO.P,AE1,1,FEED*%
%TO.N,Net-(AE1-FEED)*%
X62090000Y-59600000D03*
%TO.P,AE1,2,PCB_Trace*%
%TO.N,unconnected-(AE1-PCB_Trace-Pad2)*%
X62080000Y-66100000D03*
%TD*%
D31*
%TO.P,R3,1*%
%TO.N,VDD_nRF*%
X60700000Y-69690000D03*
%TO.P,R3,2*%
%TO.N,Net-(U2-P0.18{slash}RESET)*%
X60700000Y-70710000D03*
%TD*%
D35*
%TO.P,L6,1,1*%
%TO.N,Net-(U3-SW)*%
X47775000Y-67400000D03*
%TO.P,L6,2,2*%
%TO.N,VDD_nRF*%
X49350000Y-67400000D03*
%TD*%
D36*
%TO.P,R1,1*%
%TO.N,Net-(D1-A)*%
X56100000Y-73300000D03*
%TO.P,R1,2*%
%TO.N,Net-(U2-P0.04{slash}AIN2)*%
X56100000Y-72280000D03*
%TD*%
D32*
%TO.P,Fiducial_0.5_1_B,*%
%TO.N,*%
X59000000Y-53000000D03*
%TD*%
D13*
%TO.P,C7,1*%
%TO.N,Net-(U1-AC1)*%
X44401800Y-62331600D03*
%TO.P,C7,2*%
%TO.N,Net-(U1-BOOT1)*%
X45361800Y-62331600D03*
%TD*%
D21*
%TO.P,J3,1,Pin_1*%
%TO.N,Net-(J3-Pin_1)*%
X62650000Y-68650000D03*
%TD*%
D33*
%TO.P,C25,1*%
%TO.N,VBat*%
X44800000Y-71580000D03*
%TO.P,C25,2*%
%TO.N,GND*%
X44800000Y-70620000D03*
%TD*%
D37*
%TO.P,R7,1*%
%TO.N,Net-(U1-TS-CTRL)*%
X51941000Y-66319400D03*
%TO.P,R7,2*%
%TO.N,GND*%
X52961000Y-66319400D03*
%TD*%
D20*
%TO.P,C17,1*%
%TO.N,Net-(U2-DEC4)*%
X52895000Y-68250000D03*
%TO.P,C17,2*%
%TO.N,GND*%
X51935000Y-68250000D03*
%TD*%
D38*
%TO.P,Y1,1,1*%
%TO.N,Net-(U2-XC1)*%
X54780000Y-60170000D03*
%TO.P,Y1,2,2*%
%TO.N,GND*%
X53380000Y-60170000D03*
%TO.P,Y1,3,3*%
%TO.N,Net-(U2-XC2)*%
X53380000Y-61270000D03*
%TO.P,Y1,4,4*%
%TO.N,GND*%
X54780000Y-61270000D03*
%TD*%
D20*
%TO.P,C13,1*%
%TO.N,VDD_nRF*%
X53970000Y-71628000D03*
%TO.P,C13,2*%
%TO.N,GND*%
X53010000Y-71628000D03*
%TD*%
D17*
%TO.P,C16,1*%
%TO.N,VDD_nRF*%
X60700000Y-67818000D03*
%TO.P,C16,2*%
%TO.N,GND*%
X60700000Y-68778000D03*
%TD*%
D39*
%TO.P,L3,1,1*%
%TO.N,Net-(U2-ANT)*%
X58050000Y-62015000D03*
%TO.P,L3,2,2*%
%TO.N,Net-(C24-Pad1)*%
X58050000Y-61045000D03*
%TD*%
D15*
%TO.P,R11,1*%
%TO.N,Net-(U2-P0.18{slash}RESET)*%
X54050000Y-72600000D03*
%TO.P,R11,2*%
%TO.N,~{CHARGE}*%
X53030000Y-72600000D03*
%TD*%
D21*
%TO.P,J8,1,Pin_1*%
%TO.N,GND*%
X49700000Y-73000000D03*
%TD*%
D40*
%TO.P,U3,A1,GND*%
%TO.N,GND*%
X46300000Y-69200000D03*
%TO.P,U3,A2,IN*%
%TO.N,Net-(U1-OUT)*%
X46700000Y-69200000D03*
%TO.P,U3,A3,PMID*%
%TO.N,Net-(C30-Pad1)*%
X47100000Y-69200000D03*
%TO.P,U3,A4,SW*%
%TO.N,Net-(U3-SW)*%
X47500000Y-69200000D03*
%TO.P,U3,A5,PGND*%
%TO.N,GND*%
X47900000Y-69200000D03*
%TO.P,U3,B1,BAT*%
%TO.N,VBat*%
X46300000Y-69600000D03*
%TO.P,U3,B2,BAT*%
X46700000Y-69600000D03*
%TO.P,U3,B3,PMID*%
%TO.N,Net-(C30-Pad1)*%
X47100000Y-69600000D03*
%TO.P,U3,B4,VINLS*%
%TO.N,unconnected-(U3-VINLS-PadB4)*%
X47500000Y-69600000D03*
%TO.P,U3,B5,SYS*%
%TO.N,VDD_nRF*%
X47900000Y-69600000D03*
%TO.P,U3,C1,ISET*%
%TO.N,GND*%
X46300000Y-70000000D03*
%TO.P,U3,C2,ILIM*%
X46700000Y-70000000D03*
%TO.P,U3,C3,TS*%
%TO.N,unconnected-(U3-TS-PadC3)*%
X47100000Y-70000000D03*
%TO.P,U3,C4,VINLS*%
%TO.N,unconnected-(U3-VINLS-PadC4)*%
X47500000Y-70000000D03*
%TO.P,U3,C5,LS_LDO*%
%TO.N,unconnected-(U3-LS_LDO-PadC5)*%
X47900000Y-70000000D03*
%TO.P,U3,D1,IPRETERM*%
%TO.N,GND*%
X46300000Y-70400000D03*
%TO.P,U3,D2,INT*%
%TO.N,unconnected-(U3-INT-PadD2)*%
X46700000Y-70400000D03*
%TO.P,U3,D3,RESET_N*%
%TO.N,unconnected-(U3-RESET_N-PadD3)*%
X47100000Y-70400000D03*
%TO.P,U3,D4,PG_N*%
%TO.N,unconnected-(U3-PG_N-PadD4)*%
X47500000Y-70400000D03*
%TO.P,U3,D5,GND*%
%TO.N,GND*%
X47900000Y-70400000D03*
%TO.P,U3,E1,MR_N*%
%TO.N,unconnected-(U3-MR_N-PadE1)*%
X46300000Y-70800000D03*
%TO.P,U3,E2,CD_N*%
%TO.N,CD_N*%
X46700000Y-70800000D03*
%TO.P,U3,E3,LSCTRL*%
%TO.N,GND*%
X47100000Y-70800000D03*
%TO.P,U3,E4,SDA*%
%TO.N,I2C_SDA*%
X47500000Y-70800000D03*
%TO.P,U3,E5,SCL*%
%TO.N,I2C_SCL*%
X47900000Y-70800000D03*
%TD*%
D13*
%TO.P,C6,1*%
%TO.N,Net-(U1-AC1)*%
X44401800Y-64211200D03*
%TO.P,C6,2*%
%TO.N,Net-(U1-COM1)*%
X45361800Y-64211200D03*
%TD*%
D20*
%TO.P,C15,1*%
%TO.N,Net-(U2-DEC4)*%
X52905000Y-67300000D03*
%TO.P,C15,2*%
%TO.N,GND*%
X51945000Y-67300000D03*
%TD*%
D22*
%TO.P,L1,1,1*%
%TO.N,Net-(L1-Pad1)*%
X51950000Y-69200000D03*
%TO.P,L1,2,2*%
%TO.N,Net-(U2-DEC4)*%
X52920000Y-69200000D03*
%TD*%
D13*
%TO.P,C4,1*%
%TO.N,Net-(U2-DEC1)*%
X54840000Y-71300000D03*
%TO.P,C4,2*%
%TO.N,GND*%
X55800000Y-71300000D03*
%TD*%
D31*
%TO.P,R10,1*%
%TO.N,Net-(U1-TS-CTRL)*%
X44400000Y-68680000D03*
%TO.P,R10,2*%
%TO.N,BatNTC*%
X44400000Y-69700000D03*
%TD*%
D33*
%TO.P,C28,1*%
%TO.N,Net-(U1-OUT)*%
X44700000Y-67480000D03*
%TO.P,C28,2*%
%TO.N,GND*%
X44700000Y-66520000D03*
%TD*%
D21*
%TO.P,J4,1,Pin_1*%
%TO.N,Net-(J4-Pin_1)*%
X62650000Y-70525000D03*
%TD*%
D13*
%TO.P,C20,1*%
%TO.N,GND*%
X53060000Y-63740000D03*
%TO.P,C20,2*%
%TO.N,VDD_nRF*%
X54020000Y-63740000D03*
%TD*%
D36*
%TO.P,R2,1*%
%TO.N,Net-(U1-FOD)*%
X50900000Y-67910000D03*
%TO.P,R2,2*%
%TO.N,Net-(U1-ILIM)*%
X50900000Y-66890000D03*
%TD*%
D13*
%TO.P,C26,1*%
%TO.N,Net-(U2-XC2)*%
X53160000Y-62510000D03*
%TO.P,C26,2*%
%TO.N,GND*%
X54120000Y-62510000D03*
%TD*%
D37*
%TO.P,R4,1*%
%TO.N,I2C_SCL*%
X49080000Y-71675000D03*
%TO.P,R4,2*%
%TO.N,VDD_nRF*%
X50100000Y-71675000D03*
%TD*%
D21*
%TO.P,J7,1,Pin_1*%
%TO.N,GND*%
X62625000Y-72950000D03*
%TD*%
D20*
%TO.P,C9,1*%
%TO.N,Net-(J1-Pin_1)*%
X52160000Y-64370000D03*
%TO.P,C9,2*%
%TO.N,Net-(U1-COM2)*%
X51200000Y-64370000D03*
%TD*%
D41*
%TO.N,Net-(J1-Pin_1)*%
X52600000Y-62900000D03*
X48220000Y-58370000D03*
X50170000Y-60860000D03*
%TO.N,GND*%
X60700000Y-69050000D03*
X56070000Y-71490000D03*
X56500000Y-66700000D03*
X61600000Y-71740000D03*
X58800000Y-64600000D03*
X55600000Y-66700000D03*
X56900000Y-72600000D03*
X53060000Y-64220000D03*
X63250000Y-71710000D03*
X45850000Y-67300000D03*
X53570000Y-59650000D03*
X48450000Y-73347600D03*
X57400000Y-66700000D03*
X51520000Y-67290000D03*
X54510000Y-62660000D03*
X56500000Y-68600000D03*
X44946800Y-70250000D03*
X48525000Y-68475000D03*
X59525000Y-62125000D03*
X55550000Y-62390000D03*
X57400000Y-68600000D03*
X52175000Y-61125000D03*
X49800000Y-59750000D03*
X48900000Y-73347600D03*
X55200000Y-69000000D03*
X45800000Y-71575000D03*
X44400000Y-65900000D03*
X62520000Y-72070000D03*
X45525000Y-69200000D03*
X53160000Y-66640000D03*
X52700000Y-72000000D03*
X55050000Y-61780000D03*
X48650000Y-70625000D03*
X51460000Y-68440000D03*
X47078863Y-71602514D03*
%TO.N,VDD_nRF*%
X54475000Y-64775000D03*
X57350000Y-70925000D03*
X53900000Y-70000000D03*
X53950000Y-71150000D03*
%TO.N,Net-(U2-P0.18{slash}RESET)*%
X59696400Y-67550000D03*
X54400000Y-72800000D03*
X61395604Y-69752564D03*
X58850000Y-71896400D03*
%TO.N,~{CHARGE}*%
X44700000Y-64800000D03*
X50735435Y-73633805D03*
%TO.N,Net-(U2-DEC4)*%
X56260000Y-64530000D03*
X53340000Y-67310000D03*
%TO.N,Net-(U1-RECT)*%
X52419724Y-60340828D03*
X51600000Y-65700000D03*
%TO.N,Net-(U1-OUT)*%
X45400000Y-66600000D03*
X45900000Y-62750000D03*
%TO.N,Net-(J3-Pin_1)*%
X62000000Y-67850000D03*
X59600000Y-65925001D03*
%TO.N,BatNTC*%
X45950000Y-73100000D03*
X44352400Y-70000000D03*
%TO.N,Net-(U1-ILIM)*%
X50300000Y-66000000D03*
X51000000Y-66500000D03*
%TO.N,Net-(U1-FOD)*%
X51075000Y-65350000D03*
X50250000Y-66950000D03*
X46880000Y-65860000D03*
%TO.N,Net-(U1-TS-CTRL)*%
X46000000Y-66800000D03*
X44900000Y-68700000D03*
%TO.N,I2C_SDA*%
X47500000Y-71875000D03*
X51000000Y-72525000D03*
X59375000Y-70725000D03*
%TO.N,I2C_SCL*%
X56725532Y-70915132D03*
X48225000Y-71644890D03*
%TO.N,CD_N*%
X59650000Y-70200000D03*
X46675000Y-71900000D03*
%TD*%
D42*
%TO.N,Net-(AE1-FEED)*%
X60375000Y-59600000D02*
X62090000Y-59600000D01*
X59950000Y-60080000D02*
X59950000Y-60980000D01*
X59950000Y-60025000D02*
X60375000Y-59600000D01*
D43*
%TO.N,Net-(U1-AC1)*%
X44401800Y-64211200D02*
X44401800Y-63274000D01*
D44*
X46306800Y-60045600D02*
X46306800Y-59131200D01*
X45720001Y-61750001D02*
X45361800Y-61391800D01*
D43*
X44404400Y-63271400D02*
X44404400Y-62334200D01*
D44*
X45360000Y-60460000D02*
X45360000Y-61390000D01*
X46535000Y-61750001D02*
X45720001Y-61750001D01*
X45892400Y-60460000D02*
X46306800Y-60045600D01*
X45360000Y-60460000D02*
X45892400Y-60460000D01*
D43*
X45366800Y-61366600D02*
X44401800Y-62331600D01*
D44*
%TO.N,Net-(J2-Pin_1)*%
X44400000Y-60460000D02*
X44400000Y-59530000D01*
X44401800Y-61391800D02*
X44401800Y-60123200D01*
D43*
X44191750Y-57738250D02*
X44191750Y-58561750D01*
%TO.N,Net-(J1-Pin_1)*%
X52360000Y-62900000D02*
X52160000Y-63100000D01*
D45*
X52600000Y-62900000D02*
X52360000Y-62900000D01*
D43*
X52160000Y-63400000D02*
X52160000Y-63100000D01*
X48220000Y-58370000D02*
X48220000Y-58945000D01*
D44*
X49985000Y-61750001D02*
X49985000Y-60710000D01*
X50135000Y-60860000D02*
X49985000Y-60710000D01*
X47266800Y-59131200D02*
X47266800Y-60045600D01*
D46*
X50170000Y-60860000D02*
X50135000Y-60860000D01*
D43*
X52160000Y-64370000D02*
X52160000Y-63400000D01*
D44*
X49985000Y-60710000D02*
X48725000Y-59450000D01*
X47585600Y-59450000D02*
X48725000Y-59450000D01*
X47266800Y-59131200D02*
X47585600Y-59450000D01*
D43*
X52160000Y-63100000D02*
X52160000Y-62490000D01*
%TO.N,Net-(U2-DEC1)*%
X54699998Y-71119998D02*
X54699998Y-70125000D01*
D45*
%TO.N,GND*%
X61600000Y-72200000D02*
X60850000Y-72950000D01*
D43*
X46050000Y-70400000D02*
X45825000Y-70625000D01*
D47*
X57050000Y-62035000D02*
X57050000Y-62920000D01*
D43*
X45825000Y-70625000D02*
X45825000Y-71550000D01*
D46*
X48100000Y-73275000D02*
X48377400Y-73275000D01*
D43*
X62625000Y-72175000D02*
X62520000Y-72070000D01*
D46*
X57353200Y-73053200D02*
X56900000Y-72600000D01*
D43*
X53060000Y-63740000D02*
X53060000Y-64220000D01*
D46*
X49010001Y-65724999D02*
X49010001Y-64250001D01*
D45*
X48797600Y-73000000D02*
X48450000Y-73347600D01*
D43*
X47900000Y-70400000D02*
X48500000Y-70400000D01*
D46*
X53380000Y-59840000D02*
X53570000Y-59650000D01*
D45*
X61600000Y-71740000D02*
X61600000Y-71925000D01*
X45640000Y-67510000D02*
X45850000Y-67300000D01*
D43*
X46100000Y-70400000D02*
X46050000Y-70400000D01*
X62625000Y-72950000D02*
X62625000Y-72175000D01*
D45*
X61600000Y-71925000D02*
X61600000Y-72200000D01*
D46*
X46300000Y-70000000D02*
X46300000Y-70400000D01*
D43*
X58930000Y-64470000D02*
X58800000Y-64600000D01*
D45*
X49247600Y-73000000D02*
X48900000Y-73347600D01*
D43*
X52180000Y-61550000D02*
X52180000Y-61130000D01*
D46*
X54780000Y-61510000D02*
X55050000Y-61780000D01*
X55100000Y-72330000D02*
X55100000Y-72000000D01*
D45*
X48500000Y-70400000D02*
X49475000Y-70400000D01*
D46*
X48900000Y-73347600D02*
X49352400Y-73347600D01*
D43*
X56699999Y-64610001D02*
X57090000Y-64220000D01*
X46300000Y-70400000D02*
X46100000Y-70400000D01*
D45*
X44700000Y-66520000D02*
X44700000Y-66200000D01*
D43*
X44194000Y-65694000D02*
X44400000Y-65900000D01*
D46*
X55530000Y-62410000D02*
X55550000Y-62390000D01*
D45*
X49700000Y-73000000D02*
X48797600Y-73000000D01*
D46*
X49010001Y-61275001D02*
X49010001Y-62749999D01*
X47250001Y-65249999D02*
X48260000Y-64240000D01*
X47509999Y-65724999D02*
X47509999Y-64250001D01*
X48377400Y-73275000D02*
X48450000Y-73347600D01*
D43*
X57090000Y-64220000D02*
X57090000Y-62960000D01*
D46*
X52700000Y-71938000D02*
X53010000Y-71628000D01*
D45*
X44700000Y-66200000D02*
X44400000Y-65900000D01*
X48950000Y-70425000D02*
X48700000Y-70425000D01*
D46*
X54100000Y-68325001D02*
X55899999Y-68325001D01*
D43*
X46300000Y-69200000D02*
X45525000Y-69200000D01*
X50400000Y-59750000D02*
X49800000Y-59750000D01*
D46*
X58299999Y-69709999D02*
X56500000Y-67910000D01*
D43*
X55880000Y-71300000D02*
X56070000Y-71490000D01*
D46*
X53360000Y-58920000D02*
X53360000Y-59440000D01*
D43*
X51945000Y-67300000D02*
X51530000Y-67300000D01*
D42*
X59525000Y-62025000D02*
X59070000Y-62025000D01*
D43*
X56699999Y-65324999D02*
X56699999Y-64610001D01*
D45*
X48950000Y-70425000D02*
X48850000Y-70425000D01*
D46*
X55100000Y-72000000D02*
X55800000Y-71300000D01*
D45*
X49500000Y-70425000D02*
X48950000Y-70425000D01*
D46*
X46535000Y-65249999D02*
X47250001Y-65249999D01*
X46700000Y-70000000D02*
X46300000Y-70000000D01*
D45*
X63250000Y-72325000D02*
X62625000Y-72950000D01*
X47900000Y-69200000D02*
X47900000Y-69100000D01*
D43*
X51530000Y-67300000D02*
X51520000Y-67290000D01*
D45*
X48700000Y-70425000D02*
X48675000Y-70400000D01*
D43*
X52961000Y-66441000D02*
X53160000Y-66640000D01*
D46*
X53360000Y-59440000D02*
X53570000Y-59650000D01*
D42*
X60025000Y-62025000D02*
X59525000Y-62025000D01*
D46*
X52700000Y-72000000D02*
X52700000Y-71938000D01*
D45*
X61600000Y-71925000D02*
X62625000Y-72950000D01*
D43*
X51935000Y-68250000D02*
X51935000Y-67310000D01*
D46*
X58299999Y-70125000D02*
X58299999Y-69709999D01*
D45*
X63250000Y-71710000D02*
X63250000Y-72325000D01*
D43*
X56699999Y-65324999D02*
X56699999Y-67525001D01*
D46*
X47509999Y-61275001D02*
X47509999Y-62749999D01*
D43*
X58930000Y-64100000D02*
X58930000Y-64470000D01*
D46*
X44800000Y-70396800D02*
X44946800Y-70250000D01*
X55530000Y-62780000D02*
X55530000Y-62410000D01*
D45*
X48850000Y-70425000D02*
X48650000Y-70625000D01*
D43*
X45825000Y-71550000D02*
X45800000Y-71575000D01*
D46*
X54120000Y-62510000D02*
X54360000Y-62510000D01*
X59525000Y-62025000D02*
X59525000Y-62125000D01*
X60452000Y-68802000D02*
X60700000Y-69050000D01*
D43*
X51460000Y-68440000D02*
X51745000Y-68440000D01*
X52180000Y-61130000D02*
X52175000Y-61125000D01*
D45*
X47900000Y-69100000D02*
X48525000Y-68475000D01*
D46*
X54360000Y-62510000D02*
X54510000Y-62660000D01*
D43*
X47100000Y-70800000D02*
X47100000Y-71581377D01*
X47100000Y-71581377D02*
X47078863Y-71602514D01*
D44*
%TO.N,Net-(U1-CLMP1)*%
X46535000Y-63250000D02*
X45385800Y-63250000D01*
%TO.N,Net-(U1-COM1)*%
X45823000Y-63750000D02*
X45361800Y-64211200D01*
X46535000Y-63750000D02*
X45823000Y-63750000D01*
%TO.N,Net-(U1-BOOT1)*%
X46535000Y-62250000D02*
X45443400Y-62250000D01*
D43*
%TO.N,Net-(U1-BOOT2)*%
X50940001Y-62749999D02*
X51220000Y-62470000D01*
X49985000Y-62749999D02*
X50940001Y-62749999D01*
%TO.N,Net-(U1-COM2)*%
X50580000Y-63750000D02*
X51200000Y-64370000D01*
X49985000Y-63750000D02*
X50580000Y-63750000D01*
%TO.N,Net-(U1-CLMP2)*%
X49985000Y-63250000D02*
X51050000Y-63250000D01*
%TO.N,VDD_nRF*%
X53950000Y-71150000D02*
X53950000Y-71608000D01*
D46*
X51005000Y-71675000D02*
X51005000Y-71294400D01*
X51005000Y-71294400D02*
X50850000Y-71139400D01*
D43*
X59786600Y-71513400D02*
X57353200Y-71513400D01*
X60075000Y-71225000D02*
X59786600Y-71513400D01*
D45*
X49500000Y-68875000D02*
X49500000Y-67550000D01*
D43*
X54475000Y-64195000D02*
X54020000Y-63740000D01*
X60075000Y-71225000D02*
X60075000Y-69300000D01*
X57900000Y-70125000D02*
X57900000Y-70966600D01*
X60482000Y-67600000D02*
X60700000Y-67818000D01*
X50450000Y-69825000D02*
X49500000Y-68875000D01*
X53939400Y-71139400D02*
X50850000Y-71139400D01*
D46*
X50314400Y-71675000D02*
X50850000Y-71139400D01*
D43*
X54475000Y-64775000D02*
X54475000Y-65100001D01*
X58900000Y-66724999D02*
X59612999Y-66724999D01*
X57350000Y-70925000D02*
X57350000Y-71510200D01*
X47900000Y-69600000D02*
X48775000Y-69600000D01*
X60075000Y-67187000D02*
X60069000Y-67181000D01*
X50450000Y-70900000D02*
X50450000Y-69825000D01*
D46*
X60465000Y-69690000D02*
X60075000Y-69300000D01*
D43*
X60075000Y-69300000D02*
X60075000Y-67600000D01*
X53950000Y-71150000D02*
X53939400Y-71139400D01*
X54475000Y-64775000D02*
X54475000Y-64195000D01*
X50689400Y-71139400D02*
X50450000Y-70900000D01*
X54100000Y-69525001D02*
X54100000Y-71498000D01*
X60075000Y-67600000D02*
X60482000Y-67600000D01*
D45*
X48775000Y-69600000D02*
X49500000Y-68875000D01*
D43*
X57900000Y-70966600D02*
X57353200Y-71513400D01*
X54100000Y-69800000D02*
X53900000Y-70000000D01*
X59612999Y-66724999D02*
X60069000Y-67181000D01*
X60075000Y-67600000D02*
X60075000Y-67187000D01*
X54475000Y-65100001D02*
X54699998Y-65324999D01*
X50850000Y-71139400D02*
X50689400Y-71139400D01*
X57500000Y-70125000D02*
X57500000Y-71366600D01*
D46*
%TO.N,Net-(U2-P0.18{slash}RESET)*%
X58900000Y-67525000D02*
X59671400Y-67525000D01*
X54050000Y-72950000D02*
X54050000Y-72600000D01*
X61395604Y-70014396D02*
X61395604Y-69752564D01*
X54400000Y-72800000D02*
X54250000Y-72800000D01*
X60700000Y-71196400D02*
X60700000Y-70710000D01*
X52130000Y-73250000D02*
X53750000Y-73250000D01*
X60700000Y-70710000D02*
X61395604Y-70014396D01*
X53750000Y-73250000D02*
X54050000Y-72950000D01*
X59671400Y-67525000D02*
X59696400Y-67550000D01*
X60000000Y-71896400D02*
X58850000Y-71896400D01*
X60000000Y-71896400D02*
X60700000Y-71196400D01*
%TO.N,~{CHARGE}*%
X51550000Y-72600000D02*
X51170000Y-72980000D01*
X51170000Y-72980000D02*
X51170000Y-73250000D01*
X45700000Y-64800000D02*
X44700000Y-64800000D01*
X53030000Y-72600000D02*
X51550000Y-72600000D01*
X46249999Y-64250001D02*
X45700000Y-64800000D01*
X50786195Y-73633805D02*
X51170000Y-73250000D01*
X50735435Y-73633805D02*
X50786195Y-73633805D01*
D43*
%TO.N,Net-(U2-DEC4)*%
X52895000Y-68250000D02*
X52895000Y-68771000D01*
X52895000Y-68771000D02*
X52941000Y-68725000D01*
X52941000Y-68725000D02*
X54100000Y-68725000D01*
X56260000Y-64530000D02*
X56300000Y-64570000D01*
X52895000Y-68771000D02*
X52895000Y-69175000D01*
X52905000Y-67300000D02*
X52905000Y-68240000D01*
X53340000Y-67310000D02*
X52915000Y-67310000D01*
X56300000Y-64570000D02*
X56300000Y-65324999D01*
%TO.N,Net-(U2-DEC5)*%
X58299999Y-64429999D02*
X57970000Y-64100000D01*
X58299999Y-65324999D02*
X58299999Y-64429999D01*
D46*
%TO.N,Net-(U2-DEC3)*%
X55626000Y-64394000D02*
X55626000Y-63836000D01*
D43*
X55899998Y-65324999D02*
X55899998Y-64789998D01*
X55899998Y-64789998D02*
X55626000Y-64516000D01*
X55626000Y-64394000D02*
X55626000Y-63954000D01*
X55626000Y-64516000D02*
X55626000Y-64394000D01*
%TO.N,Net-(U2-ANT)*%
X57099999Y-64820001D02*
X57404000Y-64516000D01*
X57404000Y-63624400D02*
X58050000Y-62978400D01*
X57099999Y-65324999D02*
X57099999Y-64820001D01*
X57404000Y-64516000D02*
X57404000Y-63624400D01*
D47*
X58050000Y-62960000D02*
X58050000Y-62015000D01*
D43*
%TO.N,Net-(U1-RECT)*%
X50520000Y-62250000D02*
X51220000Y-61550000D01*
D45*
X51220000Y-61550000D02*
X51220000Y-60480000D01*
D43*
X51805000Y-65495000D02*
X51600000Y-65700000D01*
D45*
X51220000Y-60480000D02*
X51950000Y-59750000D01*
X51950000Y-59871104D02*
X52419724Y-60340828D01*
D43*
X49985000Y-62250000D02*
X50520000Y-62250000D01*
D48*
%TO.N,Net-(C24-Pad1)*%
X57050000Y-61075000D02*
X58020000Y-61075000D01*
X57050000Y-61075000D02*
X57050000Y-60065000D01*
D45*
%TO.N,Net-(U1-OUT)*%
X46700000Y-68800000D02*
X46350000Y-68450000D01*
X45400000Y-66780000D02*
X44700000Y-67480000D01*
D43*
X46700000Y-69200000D02*
X46700000Y-68800000D01*
D45*
X45350000Y-68450000D02*
X44700000Y-67800000D01*
X44700000Y-67800000D02*
X44700000Y-67480000D01*
X45900001Y-62749999D02*
X45900000Y-62750000D01*
X46535000Y-62749999D02*
X45900001Y-62749999D01*
X45400000Y-66600000D02*
X45400000Y-66780000D01*
X46350000Y-68450000D02*
X45350000Y-68450000D01*
D46*
%TO.N,Net-(U2-XC2)*%
X53750000Y-63100000D02*
X53160000Y-62510000D01*
X53160000Y-62510000D02*
X53380000Y-62290000D01*
X55100000Y-64775000D02*
X54740000Y-64415000D01*
X55100000Y-65324999D02*
X55100000Y-64775000D01*
X53380000Y-62290000D02*
X53380000Y-61270000D01*
X54360000Y-63100000D02*
X53750000Y-63100000D01*
X54740000Y-63480000D02*
X54360000Y-63100000D01*
X54740000Y-64415000D02*
X54740000Y-63480000D01*
%TO.N,Net-(U2-XC1)*%
X54780000Y-60170000D02*
X54080000Y-60870000D01*
X54490000Y-61960000D02*
X54990000Y-62460000D01*
X54780000Y-59380000D02*
X54320000Y-58920000D01*
X54990000Y-64315000D02*
X55499999Y-64824999D01*
X54780000Y-60170000D02*
X54780000Y-59380000D01*
X55499999Y-64824999D02*
X55499999Y-65324999D01*
X54080000Y-61910000D02*
X54130000Y-61960000D01*
X54990000Y-62460000D02*
X54990000Y-64315000D01*
X54130000Y-61960000D02*
X54490000Y-61960000D01*
X54080000Y-60870000D02*
X54080000Y-61910000D01*
D43*
%TO.N,VBat*%
X45800000Y-69600000D02*
X46300000Y-69600000D01*
D45*
X45348400Y-70051600D02*
X45800000Y-69600000D01*
X45070000Y-71850000D02*
X44800000Y-71580000D01*
X45348400Y-72351600D02*
X44725000Y-72975000D01*
X45348400Y-70051600D02*
X45348400Y-71850000D01*
X45348400Y-71850000D02*
X45348400Y-72351600D01*
X45348400Y-71850000D02*
X45070000Y-71850000D01*
D46*
X46700000Y-69600000D02*
X46300000Y-69600000D01*
%TO.N,Net-(D1-A)*%
X56100000Y-73300000D02*
X55100000Y-73300000D01*
%TO.N,Net-(J3-Pin_1)*%
X58900000Y-65925001D02*
X59600000Y-65925001D01*
X62000000Y-67850000D02*
X62650000Y-68500000D01*
%TO.N,Net-(J4-Pin_1)*%
X61700000Y-69575000D02*
X61700000Y-68900000D01*
X59721000Y-66325000D02*
X58900000Y-66325000D01*
X61395000Y-67545000D02*
X61102000Y-67252000D01*
X61700000Y-68900000D02*
X61395000Y-68595000D01*
X61102000Y-67252000D02*
X60648000Y-67252000D01*
X62650000Y-70525000D02*
X61700000Y-69575000D01*
X60648000Y-67252000D02*
X59721000Y-66325000D01*
X61395000Y-68595000D02*
X61395000Y-67545000D01*
%TO.N,BatNTC*%
X44400000Y-69700000D02*
X44400000Y-69952400D01*
D43*
X48045000Y-72255000D02*
X47350000Y-72950000D01*
D46*
X44400000Y-69952400D02*
X44352400Y-70000000D01*
X45950000Y-73100000D02*
X46625000Y-73100000D01*
D43*
%TO.N,Net-(L1-Pad1)*%
X51950000Y-69575000D02*
X51950000Y-69200000D01*
X51125000Y-70400000D02*
X51950000Y-69575000D01*
%TO.N,Net-(U2-DCC)*%
X53450000Y-69840000D02*
X52890000Y-70400000D01*
X53655001Y-69124999D02*
X53450000Y-69330000D01*
X54100000Y-69124999D02*
X53655001Y-69124999D01*
X53450000Y-69330000D02*
X53450000Y-69840000D01*
D46*
%TO.N,Net-(U2-P0.04{slash}AIN2)*%
X56438800Y-71120000D02*
X56438800Y-71941200D01*
X55899998Y-70581198D02*
X55899998Y-70125000D01*
X56438800Y-71120000D02*
X55899998Y-70581198D01*
X56438800Y-71941200D02*
X56100000Y-72280000D01*
%TO.N,Net-(U1-ILIM)*%
X51000000Y-66500000D02*
X51000000Y-66790000D01*
X49985000Y-65249999D02*
X49985000Y-65685000D01*
X49985000Y-65685000D02*
X50300000Y-66000000D01*
%TO.N,Net-(U1-FOD)*%
X52425000Y-64850000D02*
X52825000Y-65250000D01*
X50250000Y-67450000D02*
X50710000Y-67910000D01*
X50869999Y-64850000D02*
X51050000Y-64850000D01*
X49985000Y-64250001D02*
X50363311Y-64250001D01*
X51050000Y-64850000D02*
X52425000Y-64850000D01*
X51050000Y-65325000D02*
X51075000Y-65350000D01*
X51050000Y-64850000D02*
X51050000Y-65325000D01*
X50250000Y-67450000D02*
X50250000Y-66950000D01*
X45262000Y-65532000D02*
X45590000Y-65860000D01*
X50270000Y-64250001D02*
X50869999Y-64850000D01*
X45590000Y-65860000D02*
X46880000Y-65860000D01*
%TO.N,Net-(U1-TS-CTRL)*%
X50361025Y-66458975D02*
X50970000Y-65850000D01*
X51500000Y-66319400D02*
X51941000Y-66319400D01*
X44400000Y-68680000D02*
X44880000Y-68680000D01*
X50660000Y-64950000D02*
X50660000Y-65540000D01*
X44880000Y-68680000D02*
X44900000Y-68700000D01*
X46000000Y-66800000D02*
X46341025Y-66458975D01*
X51030600Y-65850000D02*
X51500000Y-66319400D01*
X50460000Y-64750000D02*
X50660000Y-64950000D01*
X49985000Y-64750000D02*
X50460000Y-64750000D01*
X50970000Y-65850000D02*
X51030600Y-65850000D01*
X46341025Y-66458975D02*
X50361025Y-66458975D01*
X50660000Y-65540000D02*
X50970000Y-65850000D01*
D43*
%TO.N,Net-(C30-Pad1)*%
X47100000Y-69200000D02*
X47100000Y-68550000D01*
D45*
X47100000Y-68550000D02*
X46600000Y-68050000D01*
X46600000Y-68050000D02*
X46600000Y-67650000D01*
D46*
X47100000Y-69600000D02*
X47100000Y-69200000D01*
D43*
%TO.N,Net-(U3-SW)*%
X47500000Y-69200000D02*
X47500000Y-67675000D01*
D46*
%TO.N,I2C_SDA*%
X59237500Y-70062500D02*
X59237500Y-70587500D01*
X52020000Y-71855000D02*
X51575000Y-72300000D01*
X47500000Y-71700000D02*
X47400000Y-71800000D01*
X51225000Y-72300000D02*
X51575000Y-72300000D01*
X59600000Y-69700000D02*
X59237500Y-70062500D01*
X59237500Y-70587500D02*
X59375000Y-70725000D01*
X58900000Y-68325001D02*
X59375001Y-68325001D01*
X47500000Y-70800000D02*
X47500000Y-71700000D01*
X59375001Y-68325001D02*
X59600000Y-68550000D01*
X51000000Y-72525000D02*
X51225000Y-72300000D01*
X59600000Y-68550000D02*
X59600000Y-69700000D01*
%TO.N,I2C_SCL*%
X56300000Y-70489600D02*
X56725532Y-70915132D01*
X47900000Y-70800000D02*
X47900000Y-71319890D01*
X48225000Y-71644890D02*
X49049890Y-71644890D01*
X47900000Y-71319890D02*
X48225000Y-71644890D01*
%TO.N,CD_N*%
X59803200Y-69825000D02*
X59803200Y-70046800D01*
X59803200Y-69750000D02*
X59803200Y-70046800D01*
X59474999Y-67924999D02*
X59803200Y-68253200D01*
X59803200Y-69750000D02*
X59803200Y-69825000D01*
X58900000Y-67924999D02*
X59474999Y-67924999D01*
X46700000Y-70800000D02*
X46700000Y-71875000D01*
X59803200Y-70046800D02*
X59650000Y-70200000D01*
X46700000Y-71875000D02*
X46675000Y-71900000D01*
X59803200Y-68253200D02*
X59803200Y-69750000D01*
D48*
%TO.N,Net-(C29-Pad1)*%
X58035000Y-60050000D02*
X58960000Y-60050000D01*
D42*
X58990000Y-60080000D02*
X58990000Y-60985000D01*
%TD*%
%TA.AperFunction,Conductor*%
%TO.N,GND*%
G36*
X59292874Y-72395756D02*
G01*
X59338713Y-72448487D01*
X59350000Y-72500177D01*
X59350000Y-72700000D01*
X62751000Y-72700000D01*
X62818039Y-72719685D01*
X62863794Y-72772489D01*
X62875000Y-72824000D01*
X62875000Y-73076000D01*
X62855315Y-73143039D01*
X62802511Y-73188794D01*
X62751000Y-73200000D01*
X59350001Y-73200000D01*
X59350001Y-73482170D01*
X59330316Y-73549209D01*
X59277512Y-73594964D01*
X59226198Y-73606170D01*
X58433170Y-73607427D01*
X58366099Y-73587849D01*
X58320260Y-73535117D01*
X58310207Y-73465975D01*
X58315267Y-73444422D01*
X58318056Y-73436005D01*
X58328199Y-73336722D01*
X58328200Y-73336709D01*
X58328200Y-73313400D01*
X57227200Y-73313400D01*
X57160161Y-73293715D01*
X57114406Y-73240911D01*
X57103200Y-73189400D01*
X57103200Y-72937400D01*
X57122885Y-72870361D01*
X57175689Y-72824606D01*
X57227200Y-72813400D01*
X58328199Y-72813400D01*
X58328199Y-72790092D01*
X58328198Y-72790077D01*
X58318055Y-72690792D01*
X58268257Y-72540510D01*
X58265855Y-72470682D01*
X58301587Y-72410640D01*
X58364107Y-72379447D01*
X58385759Y-72377506D01*
X59225805Y-72376177D01*
X59292874Y-72395756D01*
G37*
%TD.AperFunction*%
%TD*%
%TA.AperFunction,Conductor*%
%TO.N,GND*%
G36*
X56301863Y-58448306D02*
G01*
X56320169Y-58492330D01*
X56330000Y-62110000D01*
X56330000Y-62820000D01*
X56356841Y-62820000D01*
X56401035Y-62838306D01*
X56415288Y-62860361D01*
X56649999Y-63480000D01*
X56650000Y-63480000D01*
X56727500Y-63480000D01*
X56771694Y-63498306D01*
X56790000Y-63542500D01*
X56790000Y-64007500D01*
X56771694Y-64051694D01*
X56727500Y-64070000D01*
X56453842Y-64070000D01*
X56409648Y-64051694D01*
X56395075Y-64028778D01*
X56347097Y-63896269D01*
X55990000Y-62910000D01*
X55989998Y-62910000D01*
X55987267Y-62902456D01*
X55967981Y-62872373D01*
X55967000Y-62861343D01*
X55967000Y-62613702D01*
X55966999Y-62613701D01*
X55951509Y-62535822D01*
X55951508Y-62535820D01*
X55892496Y-62447503D01*
X55804179Y-62388491D01*
X55804177Y-62388490D01*
X55726298Y-62373000D01*
X55712500Y-62373000D01*
X55668306Y-62354694D01*
X55650000Y-62310500D01*
X55650000Y-58492500D01*
X55668306Y-58448306D01*
X55712500Y-58430000D01*
X56257669Y-58430000D01*
X56301863Y-58448306D01*
G37*
%TD.AperFunction*%
%TD*%
M02*
