%TF.GenerationSoftware,KiCad,Pcbnew,8.0.4*%
%TF.CreationDate,2024-11-25T16:13:59-04:00*%
%TF.ProjectId,Beacon-WirelessCharge,42656163-6f6e-42d5-9769-72656c657373,rev?*%
%TF.SameCoordinates,Original*%
%TF.FileFunction,AssemblyDrawing,Bot*%
%FSLAX46Y46*%
G04 Gerber Fmt 4.6, Leading zero omitted, Abs format (unit mm)*
G04 Created by KiCad (PCBNEW 8.0.4) date 2024-11-25 16:13:59*
%MOMM*%
%LPD*%
G01*
G04 APERTURE LIST*
%ADD10C,0.020000*%
G04 APERTURE END LIST*
D10*
X62842856Y-72988007D02*
X62842856Y-73273721D01*
X62842856Y-73273721D02*
X62857141Y-73330864D01*
X62857141Y-73330864D02*
X62885713Y-73368960D01*
X62885713Y-73368960D02*
X62928570Y-73388007D01*
X62928570Y-73388007D02*
X62957141Y-73388007D01*
X62542856Y-73388007D02*
X62714285Y-73388007D01*
X62628570Y-73388007D02*
X62628570Y-72988007D01*
X62628570Y-72988007D02*
X62657142Y-73045150D01*
X62657142Y-73045150D02*
X62685713Y-73083245D01*
X62685713Y-73083245D02*
X62714285Y-73102293D01*
X62357142Y-72988007D02*
X62328571Y-72988007D01*
X62328571Y-72988007D02*
X62299999Y-73007055D01*
X62299999Y-73007055D02*
X62285714Y-73026102D01*
X62285714Y-73026102D02*
X62271428Y-73064198D01*
X62271428Y-73064198D02*
X62257142Y-73140388D01*
X62257142Y-73140388D02*
X62257142Y-73235626D01*
X62257142Y-73235626D02*
X62271428Y-73311817D01*
X62271428Y-73311817D02*
X62285714Y-73349912D01*
X62285714Y-73349912D02*
X62299999Y-73368960D01*
X62299999Y-73368960D02*
X62328571Y-73388007D01*
X62328571Y-73388007D02*
X62357142Y-73388007D01*
X62357142Y-73388007D02*
X62385714Y-73368960D01*
X62385714Y-73368960D02*
X62399999Y-73349912D01*
X62399999Y-73349912D02*
X62414285Y-73311817D01*
X62414285Y-73311817D02*
X62428571Y-73235626D01*
X62428571Y-73235626D02*
X62428571Y-73140388D01*
X62428571Y-73140388D02*
X62414285Y-73064198D01*
X62414285Y-73064198D02*
X62399999Y-73026102D01*
X62399999Y-73026102D02*
X62385714Y-73007055D01*
X62385714Y-73007055D02*
X62357142Y-72988007D01*
M02*
