%TF.GenerationSoftware,KiCad,Pcbnew,8.0.4*%
%TF.CreationDate,2024-11-25T16:13:59-04:00*%
%TF.ProjectId,Beacon-WirelessCharge,42656163-6f6e-42d5-9769-72656c657373,rev?*%
%TF.SameCoordinates,Original*%
%TF.FileFunction,Legend,Top*%
%TF.FilePolarity,Positive*%
%FSLAX46Y46*%
G04 Gerber Fmt 4.6, Leading zero omitted, Abs format (unit mm)*
G04 Created by KiCad (PCBNEW 8.0.4) date 2024-11-25 16:13:59*
%MOMM*%
%LPD*%
G01*
G04 APERTURE LIST*
%ADD10C,0.150000*%
%ADD11C,0.100000*%
%ADD12C,0.120000*%
%ADD13C,0.250000*%
%ADD14C,0.152400*%
%ADD15C,0.000000*%
%ADD16C,0.200000*%
G04 APERTURE END LIST*
D10*
X43850000Y-58100000D02*
X63500000Y-58100000D01*
D11*
X50115789Y-56048609D02*
X50215789Y-56096228D01*
X50215789Y-56096228D02*
X50249122Y-56143847D01*
X50249122Y-56143847D02*
X50282455Y-56239085D01*
X50282455Y-56239085D02*
X50282455Y-56381942D01*
X50282455Y-56381942D02*
X50249122Y-56477180D01*
X50249122Y-56477180D02*
X50215789Y-56524800D01*
X50215789Y-56524800D02*
X50149122Y-56572419D01*
X50149122Y-56572419D02*
X49882455Y-56572419D01*
X49882455Y-56572419D02*
X49882455Y-55572419D01*
X49882455Y-55572419D02*
X50115789Y-55572419D01*
X50115789Y-55572419D02*
X50182455Y-55620038D01*
X50182455Y-55620038D02*
X50215789Y-55667657D01*
X50215789Y-55667657D02*
X50249122Y-55762895D01*
X50249122Y-55762895D02*
X50249122Y-55858133D01*
X50249122Y-55858133D02*
X50215789Y-55953371D01*
X50215789Y-55953371D02*
X50182455Y-56000990D01*
X50182455Y-56000990D02*
X50115789Y-56048609D01*
X50115789Y-56048609D02*
X49882455Y-56048609D01*
X50582455Y-56191466D02*
X51115789Y-56191466D01*
X51382456Y-55572419D02*
X51549122Y-56572419D01*
X51549122Y-56572419D02*
X51682456Y-55858133D01*
X51682456Y-55858133D02*
X51815789Y-56572419D01*
X51815789Y-56572419D02*
X51982456Y-55572419D01*
X52249122Y-56191466D02*
X52782456Y-56191466D01*
X53082456Y-55667657D02*
X53115789Y-55620038D01*
X53115789Y-55620038D02*
X53182456Y-55572419D01*
X53182456Y-55572419D02*
X53349123Y-55572419D01*
X53349123Y-55572419D02*
X53415789Y-55620038D01*
X53415789Y-55620038D02*
X53449123Y-55667657D01*
X53449123Y-55667657D02*
X53482456Y-55762895D01*
X53482456Y-55762895D02*
X53482456Y-55858133D01*
X53482456Y-55858133D02*
X53449123Y-56000990D01*
X53449123Y-56000990D02*
X53049123Y-56572419D01*
X53049123Y-56572419D02*
X53482456Y-56572419D01*
X53915790Y-55572419D02*
X53982456Y-55572419D01*
X53982456Y-55572419D02*
X54049123Y-55620038D01*
X54049123Y-55620038D02*
X54082456Y-55667657D01*
X54082456Y-55667657D02*
X54115790Y-55762895D01*
X54115790Y-55762895D02*
X54149123Y-55953371D01*
X54149123Y-55953371D02*
X54149123Y-56191466D01*
X54149123Y-56191466D02*
X54115790Y-56381942D01*
X54115790Y-56381942D02*
X54082456Y-56477180D01*
X54082456Y-56477180D02*
X54049123Y-56524800D01*
X54049123Y-56524800D02*
X53982456Y-56572419D01*
X53982456Y-56572419D02*
X53915790Y-56572419D01*
X53915790Y-56572419D02*
X53849123Y-56524800D01*
X53849123Y-56524800D02*
X53815790Y-56477180D01*
X53815790Y-56477180D02*
X53782456Y-56381942D01*
X53782456Y-56381942D02*
X53749123Y-56191466D01*
X53749123Y-56191466D02*
X53749123Y-55953371D01*
X53749123Y-55953371D02*
X53782456Y-55762895D01*
X53782456Y-55762895D02*
X53815790Y-55667657D01*
X53815790Y-55667657D02*
X53849123Y-55620038D01*
X53849123Y-55620038D02*
X53915790Y-55572419D01*
X54415790Y-55667657D02*
X54449123Y-55620038D01*
X54449123Y-55620038D02*
X54515790Y-55572419D01*
X54515790Y-55572419D02*
X54682457Y-55572419D01*
X54682457Y-55572419D02*
X54749123Y-55620038D01*
X54749123Y-55620038D02*
X54782457Y-55667657D01*
X54782457Y-55667657D02*
X54815790Y-55762895D01*
X54815790Y-55762895D02*
X54815790Y-55858133D01*
X54815790Y-55858133D02*
X54782457Y-56000990D01*
X54782457Y-56000990D02*
X54382457Y-56572419D01*
X54382457Y-56572419D02*
X54815790Y-56572419D01*
X55415790Y-55905752D02*
X55415790Y-56572419D01*
X55249124Y-55524800D02*
X55082457Y-56239085D01*
X55082457Y-56239085D02*
X55515790Y-56239085D01*
X56149124Y-56572419D02*
X55749124Y-56572419D01*
X55949124Y-56572419D02*
X55949124Y-55572419D01*
X55949124Y-55572419D02*
X55882457Y-55715276D01*
X55882457Y-55715276D02*
X55815791Y-55810514D01*
X55815791Y-55810514D02*
X55749124Y-55858133D01*
X56815791Y-56572419D02*
X56415791Y-56572419D01*
X56615791Y-56572419D02*
X56615791Y-55572419D01*
X56615791Y-55572419D02*
X56549124Y-55715276D01*
X56549124Y-55715276D02*
X56482458Y-55810514D01*
X56482458Y-55810514D02*
X56415791Y-55858133D01*
X57082458Y-55667657D02*
X57115791Y-55620038D01*
X57115791Y-55620038D02*
X57182458Y-55572419D01*
X57182458Y-55572419D02*
X57349125Y-55572419D01*
X57349125Y-55572419D02*
X57415791Y-55620038D01*
X57415791Y-55620038D02*
X57449125Y-55667657D01*
X57449125Y-55667657D02*
X57482458Y-55762895D01*
X57482458Y-55762895D02*
X57482458Y-55858133D01*
X57482458Y-55858133D02*
X57449125Y-56000990D01*
X57449125Y-56000990D02*
X57049125Y-56572419D01*
X57049125Y-56572419D02*
X57482458Y-56572419D01*
X58115792Y-55572419D02*
X57782458Y-55572419D01*
X57782458Y-55572419D02*
X57749125Y-56048609D01*
X57749125Y-56048609D02*
X57782458Y-56000990D01*
X57782458Y-56000990D02*
X57849125Y-55953371D01*
X57849125Y-55953371D02*
X58015792Y-55953371D01*
X58015792Y-55953371D02*
X58082458Y-56000990D01*
X58082458Y-56000990D02*
X58115792Y-56048609D01*
X58115792Y-56048609D02*
X58149125Y-56143847D01*
X58149125Y-56143847D02*
X58149125Y-56381942D01*
X58149125Y-56381942D02*
X58115792Y-56477180D01*
X58115792Y-56477180D02*
X58082458Y-56524800D01*
X58082458Y-56524800D02*
X58015792Y-56572419D01*
X58015792Y-56572419D02*
X57849125Y-56572419D01*
X57849125Y-56572419D02*
X57782458Y-56524800D01*
X57782458Y-56524800D02*
X57749125Y-56477180D01*
X50865789Y-45722419D02*
X51032455Y-46722419D01*
X51032455Y-46722419D02*
X51165789Y-46008133D01*
X51165789Y-46008133D02*
X51299122Y-46722419D01*
X51299122Y-46722419D02*
X51465789Y-45722419D01*
X52032455Y-46722419D02*
X52032455Y-46198609D01*
X52032455Y-46198609D02*
X51999122Y-46103371D01*
X51999122Y-46103371D02*
X51932455Y-46055752D01*
X51932455Y-46055752D02*
X51799122Y-46055752D01*
X51799122Y-46055752D02*
X51732455Y-46103371D01*
X52032455Y-46674800D02*
X51965789Y-46722419D01*
X51965789Y-46722419D02*
X51799122Y-46722419D01*
X51799122Y-46722419D02*
X51732455Y-46674800D01*
X51732455Y-46674800D02*
X51699122Y-46579561D01*
X51699122Y-46579561D02*
X51699122Y-46484323D01*
X51699122Y-46484323D02*
X51732455Y-46389085D01*
X51732455Y-46389085D02*
X51799122Y-46341466D01*
X51799122Y-46341466D02*
X51965789Y-46341466D01*
X51965789Y-46341466D02*
X52032455Y-46293847D01*
X52299122Y-46055752D02*
X52465788Y-46722419D01*
X52632455Y-46055752D02*
X52465788Y-46722419D01*
X52465788Y-46722419D02*
X52399122Y-46960514D01*
X52399122Y-46960514D02*
X52365788Y-47008133D01*
X52365788Y-47008133D02*
X52299122Y-47055752D01*
X52832455Y-45722419D02*
X52999121Y-46722419D01*
X52999121Y-46722419D02*
X53132455Y-46008133D01*
X53132455Y-46008133D02*
X53265788Y-46722419D01*
X53265788Y-46722419D02*
X53432455Y-45722419D01*
X53999121Y-46722419D02*
X53999121Y-46198609D01*
X53999121Y-46198609D02*
X53965788Y-46103371D01*
X53965788Y-46103371D02*
X53899121Y-46055752D01*
X53899121Y-46055752D02*
X53765788Y-46055752D01*
X53765788Y-46055752D02*
X53699121Y-46103371D01*
X53999121Y-46674800D02*
X53932455Y-46722419D01*
X53932455Y-46722419D02*
X53765788Y-46722419D01*
X53765788Y-46722419D02*
X53699121Y-46674800D01*
X53699121Y-46674800D02*
X53665788Y-46579561D01*
X53665788Y-46579561D02*
X53665788Y-46484323D01*
X53665788Y-46484323D02*
X53699121Y-46389085D01*
X53699121Y-46389085D02*
X53765788Y-46341466D01*
X53765788Y-46341466D02*
X53932455Y-46341466D01*
X53932455Y-46341466D02*
X53999121Y-46293847D01*
X54265788Y-46055752D02*
X54432454Y-46722419D01*
X54599121Y-46055752D02*
X54432454Y-46722419D01*
X54432454Y-46722419D02*
X54365788Y-46960514D01*
X54365788Y-46960514D02*
X54332454Y-47008133D01*
X54332454Y-47008133D02*
X54265788Y-47055752D01*
X54799121Y-45722419D02*
X54965787Y-46722419D01*
X54965787Y-46722419D02*
X55099121Y-46008133D01*
X55099121Y-46008133D02*
X55232454Y-46722419D01*
X55232454Y-46722419D02*
X55399121Y-45722419D01*
X55965787Y-46722419D02*
X55965787Y-46198609D01*
X55965787Y-46198609D02*
X55932454Y-46103371D01*
X55932454Y-46103371D02*
X55865787Y-46055752D01*
X55865787Y-46055752D02*
X55732454Y-46055752D01*
X55732454Y-46055752D02*
X55665787Y-46103371D01*
X55965787Y-46674800D02*
X55899121Y-46722419D01*
X55899121Y-46722419D02*
X55732454Y-46722419D01*
X55732454Y-46722419D02*
X55665787Y-46674800D01*
X55665787Y-46674800D02*
X55632454Y-46579561D01*
X55632454Y-46579561D02*
X55632454Y-46484323D01*
X55632454Y-46484323D02*
X55665787Y-46389085D01*
X55665787Y-46389085D02*
X55732454Y-46341466D01*
X55732454Y-46341466D02*
X55899121Y-46341466D01*
X55899121Y-46341466D02*
X55965787Y-46293847D01*
X56232454Y-46055752D02*
X56399120Y-46722419D01*
X56565787Y-46055752D02*
X56399120Y-46722419D01*
X56399120Y-46722419D02*
X56332454Y-46960514D01*
X56332454Y-46960514D02*
X56299120Y-47008133D01*
X56299120Y-47008133D02*
X56232454Y-47055752D01*
D10*
X46330000Y-60604819D02*
X46330000Y-60842914D01*
X46091905Y-60747676D02*
X46330000Y-60842914D01*
X46330000Y-60842914D02*
X46568095Y-60747676D01*
X46187143Y-61033390D02*
X46330000Y-60842914D01*
X46330000Y-60842914D02*
X46472857Y-61033390D01*
X46750000Y-60754819D02*
X46750000Y-60992914D01*
X46511905Y-60897676D02*
X46750000Y-60992914D01*
X46750000Y-60992914D02*
X46988095Y-60897676D01*
X46607143Y-61183390D02*
X46750000Y-60992914D01*
X46750000Y-60992914D02*
X46892857Y-61183390D01*
D12*
%TO.C,C29*%
X59362164Y-59720000D02*
X59577836Y-59720000D01*
X59362164Y-60440000D02*
X59577836Y-60440000D01*
%TO.C,C11*%
X56843200Y-72147820D02*
X56843200Y-72428980D01*
X57863200Y-72147820D02*
X57863200Y-72428980D01*
%TO.C,R5*%
X44857641Y-65152000D02*
X44550359Y-65152000D01*
X44857641Y-65912000D02*
X44550359Y-65912000D01*
%TO.C,C12*%
X48990000Y-69509420D02*
X48990000Y-69790580D01*
X50010000Y-69509420D02*
X50010000Y-69790580D01*
%TO.C,C23*%
X51315580Y-59240000D02*
X51034420Y-59240000D01*
X51315580Y-60260000D02*
X51034420Y-60260000D01*
%TO.C,C24*%
X56690000Y-61447164D02*
X56690000Y-61662836D01*
X57410000Y-61447164D02*
X57410000Y-61662836D01*
%TO.C,C2*%
X46678964Y-58760000D02*
X46894636Y-58760000D01*
X46678964Y-59480000D02*
X46894636Y-59480000D01*
%TO.C,C8*%
X51807836Y-62110000D02*
X51592164Y-62110000D01*
X51807836Y-62830000D02*
X51592164Y-62830000D01*
%TO.C,C3*%
X46678964Y-59685600D02*
X46894636Y-59685600D01*
X46678964Y-60405600D02*
X46894636Y-60405600D01*
%TO.C,C21*%
X57677836Y-62600000D02*
X57462164Y-62600000D01*
X57677836Y-63320000D02*
X57462164Y-63320000D01*
%TO.C,C18*%
X58342164Y-63740000D02*
X58557836Y-63740000D01*
X58342164Y-64460000D02*
X58557836Y-64460000D01*
%TO.C,C1*%
X44773964Y-61031800D02*
X44989636Y-61031800D01*
X44773964Y-61751800D02*
X44989636Y-61751800D01*
%TO.C,C22*%
X51592164Y-61190000D02*
X51807836Y-61190000D01*
X51592164Y-61910000D02*
X51807836Y-61910000D01*
%TO.C,C5*%
X44776564Y-62911400D02*
X44992236Y-62911400D01*
X44776564Y-63631400D02*
X44992236Y-63631400D01*
D10*
%TO.C,U2*%
X53850000Y-65450000D02*
X53850000Y-65075000D01*
X53850000Y-70374999D02*
X53850000Y-69999999D01*
X54225001Y-65075000D02*
X53850000Y-65075000D01*
X54225001Y-70374999D02*
X53850000Y-70374999D01*
X59150000Y-65075000D02*
X58774999Y-65075000D01*
X59150000Y-65450000D02*
X59150000Y-65075000D01*
X59150000Y-70374999D02*
X58774999Y-70374999D01*
X59150000Y-70374999D02*
X59150000Y-69999999D01*
D13*
X54125000Y-71025001D02*
G75*
G02*
X53875000Y-71025001I-125000J0D01*
G01*
X53875000Y-71025001D02*
G75*
G02*
X54125000Y-71025001I125000J0D01*
G01*
D14*
%TO.C,U1*%
X46308000Y-65952001D02*
X47037259Y-65952001D01*
X47037259Y-61047999D02*
X46308000Y-61047999D01*
X47982739Y-65952001D02*
X48537261Y-65952001D01*
X48537261Y-61047999D02*
X47982739Y-61047999D01*
X49482741Y-65952001D02*
X50212000Y-65952001D01*
X50212000Y-61047999D02*
X49482741Y-61047999D01*
D15*
G36*
X47700499Y-66658000D02*
G01*
X47319499Y-66658000D01*
X47319499Y-66404000D01*
X47700499Y-66404000D01*
X47700499Y-66658000D01*
G37*
G36*
X49200501Y-60596000D02*
G01*
X48819501Y-60596000D01*
X48819501Y-60342000D01*
X49200501Y-60342000D01*
X49200501Y-60596000D01*
G37*
D12*
%TO.C,C27*%
X53947836Y-58560000D02*
X53732164Y-58560000D01*
X53947836Y-59280000D02*
X53732164Y-59280000D01*
%TO.C,L2*%
X52075279Y-69890000D02*
X51749721Y-69890000D01*
X52075279Y-70910000D02*
X51749721Y-70910000D01*
%TO.C,C30*%
X46227836Y-67290000D02*
X46012164Y-67290000D01*
X46227836Y-68010000D02*
X46012164Y-68010000D01*
%TO.C,C14*%
X51757836Y-72890000D02*
X51542164Y-72890000D01*
X51757836Y-73610000D02*
X51542164Y-73610000D01*
%TO.C,C32*%
X58690000Y-61417164D02*
X58690000Y-61632836D01*
X59410000Y-61417164D02*
X59410000Y-61632836D01*
%TO.C,C31*%
X44772164Y-60100000D02*
X44987836Y-60100000D01*
X44772164Y-60820000D02*
X44987836Y-60820000D01*
%TO.C,R8*%
X51663641Y-71295000D02*
X51356359Y-71295000D01*
X51663641Y-72055000D02*
X51356359Y-72055000D01*
%TO.C,TH1*%
X47720000Y-72611359D02*
X47720000Y-72918641D01*
X48480000Y-72611359D02*
X48480000Y-72918641D01*
D11*
%TO.C,D1*%
X55150000Y-71725000D02*
G75*
G02*
X55050000Y-71725000I-50000J0D01*
G01*
X55050000Y-71725000D02*
G75*
G02*
X55150000Y-71725000I50000J0D01*
G01*
D12*
%TO.C,R6*%
X52468641Y-64970000D02*
X52161359Y-64970000D01*
X52468641Y-65730000D02*
X52161359Y-65730000D01*
%TO.C,C10*%
X51787836Y-63040000D02*
X51572164Y-63040000D01*
X51787836Y-63760000D02*
X51572164Y-63760000D01*
%TO.C,C19*%
X55170000Y-63367836D02*
X55170000Y-63152164D01*
X55890000Y-63367836D02*
X55890000Y-63152164D01*
%TO.C,AE1*%
X60810000Y-66850000D02*
X60810000Y-64275000D01*
X60835000Y-58825000D02*
X60835000Y-61150000D01*
X63410000Y-64300000D02*
X63410000Y-66850000D01*
X63410000Y-66850000D02*
X60810000Y-66850000D01*
X63435000Y-58825000D02*
X60835000Y-58825000D01*
X63435000Y-61125000D02*
X63435000Y-58825000D01*
X62640000Y-60550000D02*
X61620000Y-60550000D01*
X61620000Y-61570000D01*
X62640000Y-61570000D01*
X62640000Y-60550000D01*
G36*
X62640000Y-60550000D02*
G01*
X61620000Y-60550000D01*
X61620000Y-61570000D01*
X62640000Y-61570000D01*
X62640000Y-60550000D01*
G37*
%TO.C,R3*%
X60320000Y-70046359D02*
X60320000Y-70353641D01*
X61080000Y-70046359D02*
X61080000Y-70353641D01*
%TO.C,L6*%
X48399721Y-66890000D02*
X48725279Y-66890000D01*
X48399721Y-67910000D02*
X48725279Y-67910000D01*
%TO.C,R1*%
X55720000Y-72943641D02*
X55720000Y-72636359D01*
X56480000Y-72943641D02*
X56480000Y-72636359D01*
%TO.C,C7*%
X44773964Y-61971600D02*
X44989636Y-61971600D01*
X44773964Y-62691600D02*
X44989636Y-62691600D01*
%TO.C,C25*%
X44440000Y-71207836D02*
X44440000Y-70992164D01*
X45160000Y-71207836D02*
X45160000Y-70992164D01*
%TO.C,R7*%
X52297359Y-65939400D02*
X52604641Y-65939400D01*
X52297359Y-66699400D02*
X52604641Y-66699400D01*
%TO.C,C17*%
X52522836Y-67890000D02*
X52307164Y-67890000D01*
X52522836Y-68610000D02*
X52307164Y-68610000D01*
%TO.C,Y1*%
X55430000Y-59570000D02*
X52730000Y-59570000D01*
X55430000Y-61870000D02*
X55430000Y-59570000D01*
%TO.C,C13*%
X53597836Y-71268000D02*
X53382164Y-71268000D01*
X53597836Y-71988000D02*
X53382164Y-71988000D01*
%TO.C,C16*%
X60340000Y-68190164D02*
X60340000Y-68405836D01*
X61060000Y-68190164D02*
X61060000Y-68405836D01*
%TO.C,R11*%
X53693641Y-72220000D02*
X53386359Y-72220000D01*
X53693641Y-72980000D02*
X53386359Y-72980000D01*
D16*
%TO.C,U3*%
X45836000Y-69200000D02*
X46301000Y-68735000D01*
X45836000Y-71265000D02*
X45836000Y-69200000D01*
X46302000Y-68735000D02*
X48362000Y-68735000D01*
X48362000Y-68735000D02*
X48362000Y-71265000D01*
X48362000Y-71265000D02*
X45836000Y-71265000D01*
X45937000Y-68735000D02*
G75*
G02*
X45737000Y-68735000I-100000J0D01*
G01*
X45737000Y-68735000D02*
G75*
G02*
X45937000Y-68735000I100000J0D01*
G01*
D12*
%TO.C,C6*%
X44773964Y-63851200D02*
X44989636Y-63851200D01*
X44773964Y-64571200D02*
X44989636Y-64571200D01*
%TO.C,C15*%
X52532836Y-66940000D02*
X52317164Y-66940000D01*
X52532836Y-67660000D02*
X52317164Y-67660000D01*
%TO.C,C4*%
X55212164Y-70940000D02*
X55427836Y-70940000D01*
X55212164Y-71660000D02*
X55427836Y-71660000D01*
%TO.C,R10*%
X44020000Y-69036359D02*
X44020000Y-69343641D01*
X44780000Y-69036359D02*
X44780000Y-69343641D01*
%TO.C,C28*%
X44340000Y-67107836D02*
X44340000Y-66892164D01*
X45060000Y-67107836D02*
X45060000Y-66892164D01*
%TO.C,C20*%
X53432164Y-63380000D02*
X53647836Y-63380000D01*
X53432164Y-64100000D02*
X53647836Y-64100000D01*
%TO.C,R2*%
X50520000Y-67553641D02*
X50520000Y-67246359D01*
X51280000Y-67553641D02*
X51280000Y-67246359D01*
%TO.C,C26*%
X53532164Y-62150000D02*
X53747836Y-62150000D01*
X53532164Y-62870000D02*
X53747836Y-62870000D01*
%TO.C,R4*%
X49436359Y-71295000D02*
X49743641Y-71295000D01*
X49436359Y-72055000D02*
X49743641Y-72055000D01*
%TO.C,C9*%
X51787836Y-64010000D02*
X51572164Y-64010000D01*
X51787836Y-64730000D02*
X51572164Y-64730000D01*
%TD*%
M02*
