%TF.GenerationSoftware,KiCad,Pcbnew,8.0.4*%
%TF.CreationDate,2024-11-25T16:13:59-04:00*%
%TF.ProjectId,Beacon-WirelessCharge,42656163-6f6e-42d5-9769-72656c657373,rev?*%
%TF.SameCoordinates,Original*%
%TF.FileFunction,Legend,Bot*%
%TF.FilePolarity,Positive*%
%FSLAX46Y46*%
G04 Gerber Fmt 4.6, Leading zero omitted, Abs format (unit mm)*
G04 Created by KiCad (PCBNEW 8.0.4) date 2024-11-25 16:13:59*
%MOMM*%
%LPD*%
G01*
G04 APERTURE LIST*
%ADD10C,0.150000*%
G04 APERTURE END LIST*
D10*
X45108333Y-72918247D02*
X45008333Y-72956342D01*
X45008333Y-72956342D02*
X44974999Y-72994438D01*
X44974999Y-72994438D02*
X44941666Y-73070628D01*
X44941666Y-73070628D02*
X44941666Y-73184914D01*
X44941666Y-73184914D02*
X44974999Y-73261104D01*
X44974999Y-73261104D02*
X45008333Y-73299200D01*
X45008333Y-73299200D02*
X45074999Y-73337295D01*
X45074999Y-73337295D02*
X45341666Y-73337295D01*
X45341666Y-73337295D02*
X45341666Y-72537295D01*
X45341666Y-72537295D02*
X45108333Y-72537295D01*
X45108333Y-72537295D02*
X45041666Y-72575390D01*
X45041666Y-72575390D02*
X45008333Y-72613485D01*
X45008333Y-72613485D02*
X44974999Y-72689676D01*
X44974999Y-72689676D02*
X44974999Y-72765866D01*
X44974999Y-72765866D02*
X45008333Y-72842057D01*
X45008333Y-72842057D02*
X45041666Y-72880152D01*
X45041666Y-72880152D02*
X45108333Y-72918247D01*
X45108333Y-72918247D02*
X45341666Y-72918247D01*
X44641666Y-73032533D02*
X44108333Y-73032533D01*
X44374999Y-73337295D02*
X44374999Y-72727771D01*
X62974200Y-66956666D02*
X63012295Y-67056666D01*
X63012295Y-67056666D02*
X63012295Y-67223333D01*
X63012295Y-67223333D02*
X62974200Y-67289999D01*
X62974200Y-67289999D02*
X62936104Y-67323333D01*
X62936104Y-67323333D02*
X62859914Y-67356666D01*
X62859914Y-67356666D02*
X62783723Y-67356666D01*
X62783723Y-67356666D02*
X62707533Y-67323333D01*
X62707533Y-67323333D02*
X62669438Y-67289999D01*
X62669438Y-67289999D02*
X62631342Y-67223333D01*
X62631342Y-67223333D02*
X62593247Y-67089999D01*
X62593247Y-67089999D02*
X62555152Y-67023333D01*
X62555152Y-67023333D02*
X62517057Y-66989999D01*
X62517057Y-66989999D02*
X62440866Y-66956666D01*
X62440866Y-66956666D02*
X62364676Y-66956666D01*
X62364676Y-66956666D02*
X62288485Y-66989999D01*
X62288485Y-66989999D02*
X62250390Y-67023333D01*
X62250390Y-67023333D02*
X62212295Y-67089999D01*
X62212295Y-67089999D02*
X62212295Y-67256666D01*
X62212295Y-67256666D02*
X62250390Y-67356666D01*
X62936104Y-68056666D02*
X62974200Y-68023333D01*
X62974200Y-68023333D02*
X63012295Y-67923333D01*
X63012295Y-67923333D02*
X63012295Y-67856666D01*
X63012295Y-67856666D02*
X62974200Y-67756666D01*
X62974200Y-67756666D02*
X62898009Y-67690000D01*
X62898009Y-67690000D02*
X62821819Y-67656666D01*
X62821819Y-67656666D02*
X62669438Y-67623333D01*
X62669438Y-67623333D02*
X62555152Y-67623333D01*
X62555152Y-67623333D02*
X62402771Y-67656666D01*
X62402771Y-67656666D02*
X62326580Y-67690000D01*
X62326580Y-67690000D02*
X62250390Y-67756666D01*
X62250390Y-67756666D02*
X62212295Y-67856666D01*
X62212295Y-67856666D02*
X62212295Y-67923333D01*
X62212295Y-67923333D02*
X62250390Y-68023333D01*
X62250390Y-68023333D02*
X62288485Y-68056666D01*
X63012295Y-68690000D02*
X63012295Y-68356666D01*
X63012295Y-68356666D02*
X62212295Y-68356666D01*
X63012295Y-68923333D02*
X62212295Y-68923333D01*
X63012295Y-69323333D02*
X62555152Y-69023333D01*
X62212295Y-69323333D02*
X62669438Y-68923333D01*
X61233333Y-72893247D02*
X61133333Y-72931342D01*
X61133333Y-72931342D02*
X61099999Y-72969438D01*
X61099999Y-72969438D02*
X61066666Y-73045628D01*
X61066666Y-73045628D02*
X61066666Y-73159914D01*
X61066666Y-73159914D02*
X61099999Y-73236104D01*
X61099999Y-73236104D02*
X61133333Y-73274200D01*
X61133333Y-73274200D02*
X61199999Y-73312295D01*
X61199999Y-73312295D02*
X61466666Y-73312295D01*
X61466666Y-73312295D02*
X61466666Y-72512295D01*
X61466666Y-72512295D02*
X61233333Y-72512295D01*
X61233333Y-72512295D02*
X61166666Y-72550390D01*
X61166666Y-72550390D02*
X61133333Y-72588485D01*
X61133333Y-72588485D02*
X61099999Y-72664676D01*
X61099999Y-72664676D02*
X61099999Y-72740866D01*
X61099999Y-72740866D02*
X61133333Y-72817057D01*
X61133333Y-72817057D02*
X61166666Y-72855152D01*
X61166666Y-72855152D02*
X61233333Y-72893247D01*
X61233333Y-72893247D02*
X61466666Y-72893247D01*
X60766666Y-73007533D02*
X60233333Y-73007533D01*
X49503333Y-72923247D02*
X49403333Y-72961342D01*
X49403333Y-72961342D02*
X49369999Y-72999438D01*
X49369999Y-72999438D02*
X49336666Y-73075628D01*
X49336666Y-73075628D02*
X49336666Y-73189914D01*
X49336666Y-73189914D02*
X49369999Y-73266104D01*
X49369999Y-73266104D02*
X49403333Y-73304200D01*
X49403333Y-73304200D02*
X49469999Y-73342295D01*
X49469999Y-73342295D02*
X49736666Y-73342295D01*
X49736666Y-73342295D02*
X49736666Y-72542295D01*
X49736666Y-72542295D02*
X49503333Y-72542295D01*
X49503333Y-72542295D02*
X49436666Y-72580390D01*
X49436666Y-72580390D02*
X49403333Y-72618485D01*
X49403333Y-72618485D02*
X49369999Y-72694676D01*
X49369999Y-72694676D02*
X49369999Y-72770866D01*
X49369999Y-72770866D02*
X49403333Y-72847057D01*
X49403333Y-72847057D02*
X49436666Y-72885152D01*
X49436666Y-72885152D02*
X49503333Y-72923247D01*
X49503333Y-72923247D02*
X49736666Y-72923247D01*
X49036666Y-73037533D02*
X48503333Y-73037533D01*
X47766666Y-73342295D02*
X47766666Y-72542295D01*
X47766666Y-72542295D02*
X47366666Y-73342295D01*
X47366666Y-73342295D02*
X47366666Y-72542295D01*
X47133333Y-72542295D02*
X46733333Y-72542295D01*
X46933333Y-73342295D02*
X46933333Y-72542295D01*
X46100000Y-73266104D02*
X46133333Y-73304200D01*
X46133333Y-73304200D02*
X46233333Y-73342295D01*
X46233333Y-73342295D02*
X46300000Y-73342295D01*
X46300000Y-73342295D02*
X46400000Y-73304200D01*
X46400000Y-73304200D02*
X46466667Y-73228009D01*
X46466667Y-73228009D02*
X46500000Y-73151819D01*
X46500000Y-73151819D02*
X46533333Y-72999438D01*
X46533333Y-72999438D02*
X46533333Y-72885152D01*
X46533333Y-72885152D02*
X46500000Y-72732771D01*
X46500000Y-72732771D02*
X46466667Y-72656580D01*
X46466667Y-72656580D02*
X46400000Y-72580390D01*
X46400000Y-72580390D02*
X46300000Y-72542295D01*
X46300000Y-72542295D02*
X46233333Y-72542295D01*
X46233333Y-72542295D02*
X46133333Y-72580390D01*
X46133333Y-72580390D02*
X46100000Y-72618485D01*
X62974200Y-69975000D02*
X63012295Y-70075000D01*
X63012295Y-70075000D02*
X63012295Y-70241667D01*
X63012295Y-70241667D02*
X62974200Y-70308333D01*
X62974200Y-70308333D02*
X62936104Y-70341667D01*
X62936104Y-70341667D02*
X62859914Y-70375000D01*
X62859914Y-70375000D02*
X62783723Y-70375000D01*
X62783723Y-70375000D02*
X62707533Y-70341667D01*
X62707533Y-70341667D02*
X62669438Y-70308333D01*
X62669438Y-70308333D02*
X62631342Y-70241667D01*
X62631342Y-70241667D02*
X62593247Y-70108333D01*
X62593247Y-70108333D02*
X62555152Y-70041667D01*
X62555152Y-70041667D02*
X62517057Y-70008333D01*
X62517057Y-70008333D02*
X62440866Y-69975000D01*
X62440866Y-69975000D02*
X62364676Y-69975000D01*
X62364676Y-69975000D02*
X62288485Y-70008333D01*
X62288485Y-70008333D02*
X62250390Y-70041667D01*
X62250390Y-70041667D02*
X62212295Y-70108333D01*
X62212295Y-70108333D02*
X62212295Y-70275000D01*
X62212295Y-70275000D02*
X62250390Y-70375000D01*
X63012295Y-70675000D02*
X62212295Y-70675000D01*
X62212295Y-70675000D02*
X62212295Y-70841667D01*
X62212295Y-70841667D02*
X62250390Y-70941667D01*
X62250390Y-70941667D02*
X62326580Y-71008334D01*
X62326580Y-71008334D02*
X62402771Y-71041667D01*
X62402771Y-71041667D02*
X62555152Y-71075000D01*
X62555152Y-71075000D02*
X62669438Y-71075000D01*
X62669438Y-71075000D02*
X62821819Y-71041667D01*
X62821819Y-71041667D02*
X62898009Y-71008334D01*
X62898009Y-71008334D02*
X62974200Y-70941667D01*
X62974200Y-70941667D02*
X63012295Y-70841667D01*
X63012295Y-70841667D02*
X63012295Y-70675000D01*
M02*
